<svg width="600" height="303" viewBox="0 0 600 303" fill="none" xmlns="http://www.w3.org/2000/svg">
<g clip-path="url(#clip0_21_1307)">
<path d="M542.057 246.021H85.8529C80.0209 246.015 74.4297 243.695 70.3058 239.571C66.1819 235.448 63.8623 229.856 63.8557 224.024V50.9155C63.8623 45.0835 66.182 39.4923 70.3059 35.3684C74.4297 31.2446 80.0209 28.9249 85.8529 28.9183H542.057C547.889 28.9249 553.48 31.2446 557.604 35.3684C561.727 39.4923 564.047 45.0835 564.054 50.9155V224.024C564.047 229.856 561.728 235.448 557.604 239.571C553.48 243.695 547.889 246.015 542.057 246.021Z" fill="white"/>
<path d="M542.057 246.021H85.8529C80.0209 246.015 74.4297 243.695 70.3058 239.571C66.1819 235.448 63.8623 229.856 63.8557 224.024V50.9155C63.8623 45.0835 66.182 39.4923 70.3059 35.3684C74.4297 31.2446 80.0209 28.9249 85.8529 28.9183H542.057C547.889 28.9249 553.48 31.2446 557.604 35.3684C561.727 39.4923 564.047 45.0835 564.054 50.9155V224.024C564.047 229.856 561.728 235.448 557.604 239.571C553.48 243.695 547.889 246.015 542.057 246.021ZM85.8529 30.8311C80.5262 30.8311 75.4177 32.9471 71.6511 36.7137C67.8845 40.4802 65.7685 45.5888 65.7685 50.9155V224.024C65.7685 226.662 66.288 229.273 67.2973 231.71C68.3067 234.147 69.7861 236.361 71.6511 238.226C73.5161 240.091 75.7302 241.57 78.167 242.58C80.6037 243.589 83.2154 244.109 85.8529 244.109H542.057C544.694 244.109 547.306 243.589 549.743 242.58C552.179 241.57 554.393 240.091 556.258 238.226C558.123 236.361 559.603 234.147 560.612 231.71C561.622 229.273 562.141 226.662 562.141 224.024V158.753C562.141 124.826 548.664 92.2885 524.674 68.2985C500.684 44.3085 468.146 30.8311 434.219 30.8311H85.8529Z" fill="#E6E6E6"/>
<path d="M49.7561 282.874C49.9427 281.591 48.5996 280.334 46.7563 280.066C44.913 279.798 43.2674 280.62 43.0809 281.902C42.8943 283.185 44.2373 284.442 46.0807 284.71C47.924 284.978 49.5695 284.156 49.7561 282.874Z" fill="white"/>
<path d="M71.7028 280.732C71.8893 279.45 70.5463 278.193 68.7029 277.925C66.8596 277.656 65.2141 278.479 65.0275 279.761C64.8409 281.043 66.184 282.3 68.0273 282.568C69.8706 282.836 71.5162 282.014 71.7028 280.732Z" fill="#3F3D56"/>
<path d="M43.7465 265.106C43.933 263.824 42.59 262.567 40.7467 262.299C38.9033 262.03 37.2578 262.853 37.0712 264.135C36.8846 265.417 38.2277 266.674 40.071 266.942C41.9143 267.21 43.5599 266.388 43.7465 265.106Z" fill="#FF6584"/>
<path d="M34.2101 257.828C34.219 256.651 33.5623 255.692 32.7434 255.685C31.9245 255.679 31.2534 256.629 31.2445 257.806C31.2356 258.983 31.8923 259.942 32.7112 259.948C33.5301 259.955 34.2012 259.005 34.2101 257.828Z" fill="#E6E6E6"/>
<path d="M30.9761 244.272C30.985 243.095 30.3283 242.136 29.5094 242.13C28.6905 242.124 28.0194 243.073 28.0105 244.25C28.0016 245.427 28.6582 246.387 29.4772 246.393C30.2961 246.399 30.9672 245.45 30.9761 244.272Z" fill="#3F3D56"/>
<path d="M56.1245 268.13C56.1334 266.952 55.4768 265.993 54.6579 265.987C53.8389 265.981 53.1678 266.93 53.1589 268.107C53.15 269.284 53.8067 270.244 54.6256 270.25C55.4445 270.256 56.1156 269.307 56.1245 268.13Z" fill="#E6E6E6"/>
<path d="M45.5189 273.425C45.5278 272.248 44.8712 271.288 44.0523 271.282C43.2333 271.276 42.5623 272.225 42.5533 273.402C42.5444 274.58 43.2011 275.539 44.02 275.545C44.839 275.551 45.51 274.602 45.5189 273.425Z" fill="#FF6584"/>
<path d="M60.2823 283.212C60.2912 282.035 59.6345 281.075 58.8156 281.069C57.9966 281.063 57.3256 282.012 57.3167 283.189C57.3078 284.367 57.9644 285.326 58.7833 285.332C59.6023 285.338 60.2734 284.389 60.2823 283.212Z" fill="#3F3D56"/>
<path d="M579.964 6.4289C580.37 4.82778 578.833 3.05699 576.531 2.47371C574.23 1.89042 572.035 2.71552 571.629 4.31664C571.223 5.91777 572.76 7.6886 575.062 8.27189C577.363 8.85517 579.558 8.03003 579.964 6.4289Z" fill="white"/>
<path d="M551.857 6.24773C552.262 4.64661 550.726 2.87578 548.424 2.29249C546.122 1.70921 543.928 2.53436 543.522 4.13548C543.116 5.73661 544.653 7.50739 546.955 8.09067C549.256 8.67396 551.451 7.84886 551.857 6.24773Z" fill="#3F3D56"/>
<path d="M585.239 29.7482C585.644 28.1471 584.107 26.3763 581.806 25.793C579.504 25.2098 577.309 26.0349 576.904 27.636C576.498 29.2371 578.035 31.0079 580.336 31.5912C582.638 32.1745 584.833 31.3494 585.239 29.7482Z" fill="#FF6584"/>
<path d="M591.791 38.5413C591.957 37.05 591.251 35.7471 590.214 35.6312C589.176 35.5153 588.2 36.6302 588.034 38.1216C587.867 39.6129 588.573 40.9158 589.61 41.0317C590.648 41.1477 591.624 40.0327 591.791 38.5413Z" fill="#E6E6E6"/>
<path d="M594.106 56.1515C594.272 54.6602 593.566 53.3572 592.529 53.2413C591.491 53.1254 590.515 54.2404 590.349 55.7317C590.182 57.223 590.888 58.526 591.925 58.6419C592.963 58.7578 593.939 57.6428 594.106 56.1515Z" fill="#3F3D56"/>
<path d="M565.366 22.5888C565.533 21.0975 564.827 19.7946 563.789 19.6787C562.752 19.5627 561.776 20.6777 561.609 22.169C561.443 23.6604 562.149 24.9633 563.186 25.0792C564.223 25.1951 565.199 24.0802 565.366 22.5888Z" fill="#E6E6E6"/>
<path d="M579.511 17.2749C579.678 15.7836 578.972 14.4807 577.934 14.3648C576.897 14.2488 575.921 15.3638 575.754 16.8551C575.587 18.3465 576.293 19.6494 577.331 19.7653C578.368 19.8812 579.344 18.7663 579.511 17.2749Z" fill="#FF6584"/>
<path d="M562.085 2.91842C562.252 1.4271 561.546 0.124169 560.509 0.00824757C559.471 -0.107674 558.495 1.00731 558.328 2.49863C558.162 3.98996 558.868 5.29289 559.905 5.40881C560.943 5.52473 561.919 4.40975 562.085 2.91842Z" fill="#3F3D56"/>
<path d="M246.328 133.947C246.353 151.271 239.954 167.989 228.367 180.868V180.878C226.729 182.699 224.999 184.436 223.183 186.08C221.326 187.763 219.378 189.343 217.349 190.815C215.934 191.848 214.48 192.823 212.988 193.741C211.219 194.841 209.399 195.858 207.527 196.792C206.14 197.49 204.725 198.141 203.281 198.743C194.66 202.366 185.403 204.229 176.052 204.223C170.771 204.229 165.506 203.639 160.357 202.464C157.976 201.922 155.627 201.252 153.318 200.455C152.429 200.159 151.539 199.834 150.659 199.489C145.324 197.427 140.265 194.712 135.596 191.408C125.728 184.46 117.816 175.088 112.621 164.195C107.427 153.302 105.125 141.254 105.937 129.213C106.75 117.172 110.65 105.544 117.261 95.4473C123.873 85.351 132.973 77.1274 143.685 71.5688C154.397 66.0102 166.36 63.3038 178.421 63.7105C190.483 64.1172 202.236 67.6232 212.55 73.8907C222.863 80.1582 231.388 88.9761 237.305 99.4948C243.221 110.014 246.329 121.879 246.328 133.947V133.947Z" fill="#F2F2F2"/>
<path d="M456.66 81.7068H335.197C334.184 81.7053 333.212 81.3015 332.496 80.5843C331.779 79.867 331.377 78.8948 331.377 77.8811C331.377 76.8675 331.779 75.8953 332.496 75.178C333.212 74.4607 334.184 74.057 335.197 74.0555H456.66C457.675 74.0555 458.648 74.4586 459.365 75.176C460.083 75.8935 460.486 76.8665 460.486 77.8811C460.486 78.8958 460.083 79.8688 459.365 80.5863C458.648 81.3037 457.675 81.7068 456.66 81.7068Z" fill="#8CD6FF"/>
<path d="M456.66 133.352H335.197C334.184 133.351 333.212 132.947 332.496 132.23C331.779 131.513 331.377 130.54 331.377 129.527C331.377 128.513 331.779 127.541 332.496 126.824C333.212 126.106 334.184 125.703 335.197 125.701H456.66C457.674 125.703 458.645 126.106 459.362 126.824C460.078 127.541 460.48 128.513 460.48 129.527C460.48 130.54 460.078 131.513 459.362 132.23C458.645 132.947 457.674 133.351 456.66 133.352Z" fill="#E6E6E6"/>
<path d="M456.66 184.998H335.197C334.184 184.997 333.212 184.593 332.496 183.876C331.779 183.158 331.377 182.186 331.377 181.173C331.377 180.159 331.779 179.187 332.496 178.469C333.212 177.752 334.184 177.348 335.197 177.347H456.66C457.675 177.347 458.648 177.75 459.365 178.467C460.083 179.185 460.486 180.158 460.486 181.173C460.486 182.187 460.083 183.16 459.365 183.878C458.648 184.595 457.675 184.998 456.66 184.998Z" fill="#E6E6E6"/>
<path d="M152.996 299.127C139.284 280.888 131.358 260.492 131.099 237.239C130.657 235.986 130.73 234.609 131.303 233.41C131.875 232.211 132.9 231.288 134.152 230.843L180.89 214.306C182.143 213.864 183.521 213.937 184.72 214.51C185.919 215.082 186.842 216.107 187.287 217.359L209.184 279.246C209.626 280.499 209.552 281.876 208.98 283.075C208.408 284.275 207.383 285.198 206.131 285.642L159.392 302.18C158.139 302.621 156.762 302.548 155.563 301.976C154.364 301.403 153.441 300.379 152.996 299.127Z" fill="#E6E6E6"/>
<path d="M149.967 279.166C141.72 270.827 138.19 255.955 135.89 239.379C135.476 238.205 135.545 236.915 136.081 235.792C136.617 234.669 137.576 233.805 138.749 233.389L178.917 219.176C180.09 218.762 181.38 218.831 182.503 219.367C183.626 219.903 184.491 220.862 184.907 222.035L204.393 277.106C204.807 278.28 204.738 279.57 204.202 280.693C203.666 281.816 202.706 282.68 201.534 283.097L176.65 291.901C171.423 293.744 165.678 293.438 160.676 291.051C155.673 288.663 151.822 284.389 149.967 279.166Z" fill="white"/>
<path d="M185.445 251.702L154.155 262.871C153.909 262.959 153.647 262.998 153.386 262.985C153.124 262.972 152.868 262.907 152.631 262.795C152.395 262.683 152.183 262.525 152.007 262.331C151.831 262.137 151.696 261.91 151.608 261.664C151.52 261.417 151.481 261.156 151.494 260.894C151.507 260.633 151.572 260.377 151.684 260.14C151.796 259.904 151.953 259.691 152.148 259.516C152.342 259.34 152.568 259.204 152.815 259.116L184.105 247.947C184.603 247.77 185.151 247.797 185.629 248.023C186.106 248.25 186.475 248.657 186.652 249.155C186.83 249.653 186.803 250.201 186.576 250.678C186.35 251.156 185.943 251.524 185.445 251.702H185.445Z" fill="#8CD6FF"/>
<path d="M157.364 250.118L150.48 252.575C150.234 252.664 149.972 252.703 149.71 252.69C149.449 252.677 149.192 252.613 148.955 252.501C148.719 252.389 148.506 252.231 148.33 252.037C148.155 251.843 148.019 251.616 147.931 251.369C147.843 251.122 147.804 250.861 147.817 250.599C147.83 250.337 147.895 250.081 148.007 249.844C148.119 249.608 148.277 249.395 148.472 249.22C148.666 249.044 148.893 248.908 149.14 248.821L156.024 246.364C156.27 246.275 156.532 246.236 156.793 246.249C157.055 246.262 157.312 246.326 157.548 246.438C157.785 246.551 157.998 246.708 158.173 246.902C158.349 247.096 158.485 247.323 158.573 247.57C158.661 247.817 158.7 248.078 158.687 248.34C158.673 248.602 158.609 248.858 158.497 249.095C158.384 249.331 158.226 249.544 158.032 249.719C157.838 249.895 157.611 250.03 157.364 250.118Z" fill="#8CD6FF"/>
<path d="M191.337 268.209L160.047 279.378C159.55 279.555 159.002 279.527 158.525 279.301C158.047 279.074 157.679 278.668 157.502 278.17C157.324 277.673 157.351 277.125 157.577 276.647C157.803 276.17 158.21 275.801 158.707 275.623L189.997 264.454C190.495 264.277 191.042 264.305 191.52 264.532C191.997 264.758 192.365 265.165 192.542 265.662C192.72 266.16 192.693 266.708 192.467 267.185C192.241 267.663 191.835 268.031 191.337 268.209Z" fill="#8CD6FF"/>
<path d="M188.391 259.956L157.101 271.125C156.603 271.302 156.055 271.275 155.577 271.049C155.1 270.822 154.731 270.415 154.554 269.917C154.376 269.42 154.403 268.871 154.63 268.394C154.856 267.916 155.263 267.548 155.761 267.37L187.051 256.201C187.297 256.113 187.559 256.074 187.821 256.087C188.082 256.1 188.339 256.164 188.576 256.276C188.812 256.388 189.025 256.546 189.201 256.74C189.376 256.934 189.512 257.161 189.6 257.408C189.688 257.654 189.727 257.916 189.714 258.178C189.701 258.439 189.636 258.696 189.524 258.932C189.411 259.169 189.254 259.381 189.059 259.557C188.865 259.732 188.638 259.868 188.391 259.956Z" fill="#8CD6FF"/>
<path d="M159.978 102.153C160.997 110.374 166.694 117.152 174.978 117.152C178.956 117.152 182.771 115.572 185.584 112.759C188.397 109.946 189.977 106.131 189.977 102.153C189.977 93.8686 183.226 87.9191 174.978 87.1532C166.226 86.3405 158.67 91.5978 159.978 102.153Z" fill="#2F2E41"/>
<path d="M188.036 203.2C178.851 204.779 169.445 204.529 160.357 202.464C164.671 200.082 177.754 201.545 188.036 203.2Z" fill="#2F2E41"/>
<path d="M129.656 229.583L136.861 212.171L142.538 215.325L139.11 233.037C139.453 234.16 139.476 235.355 139.178 236.49C138.879 237.625 138.269 238.654 137.417 239.461C136.566 240.268 135.506 240.822 134.357 241.06C133.208 241.298 132.015 241.211 130.913 240.808C129.81 240.405 128.842 239.703 128.117 238.78C127.392 237.858 126.939 236.751 126.808 235.585C126.678 234.419 126.875 233.239 127.378 232.179C127.881 231.119 128.67 230.22 129.656 229.583Z" fill="#FFB6B6"/>
<path d="M204.189 182.465V182.475C203.931 188.538 203.577 194.306 203.281 198.743C194.66 202.366 185.403 204.229 176.052 204.223C170.771 204.229 165.506 203.639 160.357 202.464C157.976 201.922 155.626 201.252 153.318 200.455C153.64 200.248 153.987 200.084 154.351 199.967C157.794 198.801 154.389 197.739 154.418 196.63C154.523 192.574 155.642 187.706 157.086 183.039L150.659 199.489L147.312 208.039C147.312 208.039 147.427 215.423 145.304 213.166C143.171 210.909 143.324 218.216 143.324 218.216C142.661 218.688 142.09 219.278 141.64 219.956C141.451 220.262 141.38 220.625 141.44 220.98V220.989C141.536 221.267 141.725 221.504 141.975 221.659C143.419 222.634 141.344 225.216 140.426 226.24C140.177 226.517 140.015 226.68 140.015 226.68L131.187 226.048V225.876C131.225 224.834 131.464 219.344 132.832 218.034C134.334 216.59 133.597 214.304 133.597 214.304C133.597 214.304 137.518 210.832 134.888 208.011C133.836 206.873 134.305 200.13 135.596 191.408C138.417 172.165 145.179 143.282 148.106 143.693C148.709 140.763 150.11 138.057 152.153 135.873C154.197 133.689 156.804 132.113 159.688 131.317L169.223 128.696L170.925 121.973H184.353L186.687 126.391L196.471 130.81L196.595 130.867L196.901 131.001L197.016 131.365C197.016 131.365 197.007 131.374 197.016 131.374L202.458 148.465C204.907 151.277 204.811 167.708 204.189 182.465Z" fill="#8CD6FF"/>
<path d="M227.055 216.904L217.962 200.399L223.971 197.938L235.658 211.682C236.749 212.115 237.697 212.843 238.397 213.786C239.096 214.728 239.518 215.847 239.616 217.017C239.715 218.186 239.485 219.36 238.952 220.405C238.42 221.451 237.607 222.328 236.604 222.937C235.601 223.546 234.447 223.863 233.274 223.852C232.1 223.842 230.953 223.504 229.961 222.877C228.969 222.251 228.171 221.36 227.658 220.304C227.145 219.249 226.936 218.072 227.055 216.904Z" fill="#FFB6B6"/>
<path d="M196.473 130.678C198.09 133.584 212.882 141.058 210.318 148.562C210.318 148.562 224.215 192.037 226.022 191.754C227.829 191.47 229.592 195.961 229.592 195.961C229.592 195.961 229.209 198.892 230.336 197.674C231.463 196.456 231.193 199.648 231.193 199.648C231.193 199.648 230.653 202.466 232.084 201.7C233.515 200.934 231.634 206.327 231.634 206.327L223.034 210.376L221.399 207.944C221.399 207.944 217.907 207.279 219.55 206.752C221.194 206.225 218.005 204.452 218.005 204.452C218.005 204.452 214.67 202.185 215.134 198.431C215.599 194.676 206.478 187.295 206.478 187.295C200.208 174.916 196.778 162.206 196.79 149.095L196.473 130.678Z" fill="#8CD6FF"/>
<path d="M176.636 118.043C183.981 118.043 189.936 112.088 189.936 104.742C189.936 97.396 183.981 91.441 176.636 91.441C169.29 91.441 163.335 97.396 163.335 104.742C163.335 112.088 169.29 118.043 176.636 118.043Z" fill="#FFB6B6"/>
<path d="M162.863 106.191C163.284 109.081 165.747 113.114 165.17 113.114C164.593 113.114 160.492 101.199 164.593 100.422C167.569 99.8584 168.234 100.353 171.014 99.147L170.622 99.5162C172.462 100.855 175.024 100.03 177.124 99.1585C179.229 98.2931 181.785 97.4682 183.631 98.8008C184.791 99.6373 185.281 101.091 186.002 102.326C186.723 103.566 188.056 104.737 189.429 104.356C189.964 104.15 190.42 103.779 190.731 103.297C191.042 102.815 191.192 102.246 191.16 101.674C191.154 100.532 189.666 99.4449 190.167 98.42C191.652 95.383 190.317 93.3129 187.081 91.8838C185.904 91.705 184.727 91.5223 183.55 91.3358C184.167 90.4816 184.915 89.73 185.766 89.1089C185.406 88.1871 184.784 87.3909 183.977 86.8186C182.98 86.3551 181.869 86.1946 180.781 86.3571C178.347 86.484 175.914 86.6109 173.483 86.7378C171.673 86.7055 169.876 87.0554 168.211 87.7647C166.203 88.7974 164.888 90.8107 163.93 92.8588C161.784 97.4624 162.124 101.166 162.863 106.191Z" fill="#2F2E41"/>
<path d="M495.585 97.4669H295.557C295.337 97.4669 295.126 97.3794 294.97 97.2237C294.814 97.0679 294.727 96.8567 294.727 96.6364C294.727 96.4161 294.814 96.2049 294.97 96.0492C295.126 95.8934 295.337 95.8059 295.557 95.8059H495.585C495.805 95.8059 496.016 95.8934 496.172 96.0492C496.328 96.2049 496.415 96.4161 496.415 96.6364C496.415 96.8567 496.328 97.0679 496.172 97.2237C496.016 97.3794 495.805 97.4669 495.585 97.4669Z" fill="#E6E6E6"/>
<path d="M495.585 148.958H295.557C295.337 148.958 295.126 148.871 294.97 148.715C294.814 148.559 294.727 148.348 294.727 148.128C294.727 147.907 294.814 147.696 294.97 147.541C295.126 147.385 295.337 147.297 295.557 147.297H495.585C495.805 147.297 496.016 147.385 496.172 147.541C496.328 147.696 496.415 147.907 496.415 148.128C496.415 148.348 496.328 148.559 496.172 148.715C496.016 148.871 495.805 148.958 495.585 148.958Z" fill="#E6E6E6"/>
<path d="M495.585 200.449H295.557C295.337 200.449 295.126 200.362 294.97 200.206C294.814 200.05 294.727 199.839 294.727 199.619C294.727 199.398 294.814 199.187 294.97 199.031C295.126 198.876 295.337 198.788 295.557 198.788H495.585C495.805 198.788 496.016 198.876 496.172 199.031C496.328 199.187 496.415 199.398 496.415 199.619C496.415 199.839 496.328 200.05 496.172 200.206C496.016 200.362 495.805 200.449 495.585 200.449Z" fill="#E6E6E6"/>
<path d="M525.357 197.157C518.034 197.157 510.952 194.542 505.387 189.782C503.531 188.193 501.552 185.43 499.508 181.571C498.203 179.086 497.472 176.339 497.369 173.533C497.266 170.728 497.793 167.935 498.912 165.36C497.834 166.457 496.641 167.435 495.354 168.279L494.703 168.711L494.666 167.931C494.641 167.424 494.629 166.918 494.629 166.428C494.629 163.541 496.812 160.612 495.805 157.943C491.561 146.696 478.099 135.519 497.609 118.113C499.414 116.503 497.003 113.283 497.003 110.847C497.003 86.9719 530.747 45.667 540.311 67.5481C552.105 94.533 572.425 91.6466 581.427 97.2203L581.558 97.6146L581.173 97.7703C579.203 98.5983 577.128 99.1502 575.007 99.4104C577.268 99.8716 579.576 100.065 581.882 99.9864L582.24 99.9739L582.327 100.322C583.185 103.764 583.619 107.299 583.618 110.847L583.617 111.231C583.609 113.926 584.169 116.592 585.26 119.056C586.352 121.52 587.951 123.726 589.952 125.531C593.113 128.413 595.64 131.923 597.37 135.836C599.1 139.748 599.995 143.979 600 148.257C600 153.319 596.56 159.963 593.674 164.645C592.943 165.838 591.951 166.849 590.772 167.604C589.594 168.359 588.26 168.837 586.871 169.002C585.555 169.168 584.219 169.043 582.957 168.635C581.695 168.227 580.538 167.547 579.568 166.643C580.933 169.389 582.714 171.91 584.845 174.115L585.239 174.521L584.75 174.806C580.052 177.545 574.71 178.988 569.272 178.986L568.953 178.985C564.965 178.944 561.009 179.699 557.317 181.206C553.625 182.713 550.27 184.942 547.45 187.762C544.579 190.72 541.145 193.074 537.351 194.688C533.558 196.301 529.48 197.141 525.357 197.157Z" fill="#E6E6E6"/>
<path d="M514.785 245.82C514.652 245.82 514.524 245.772 514.424 245.684C514.323 245.597 514.258 245.477 514.239 245.345C512.794 232.459 512.707 219.456 513.981 206.552C515.889 186.195 522.014 156.873 540.363 132.792C540.407 132.734 540.462 132.686 540.525 132.649C540.587 132.613 540.657 132.589 540.729 132.579C540.801 132.57 540.874 132.574 540.944 132.593C541.014 132.611 541.08 132.643 541.138 132.687C541.195 132.731 541.244 132.786 541.28 132.849C541.317 132.912 541.341 132.981 541.35 133.053C541.36 133.125 541.355 133.198 541.337 133.268C541.318 133.338 541.286 133.404 541.242 133.462C523.052 157.335 516.976 186.441 515.082 206.655C513.815 219.473 513.899 232.389 515.333 245.189C515.344 245.268 515.338 245.348 515.316 245.424C515.293 245.499 515.255 245.57 515.203 245.629C515.151 245.689 515.087 245.737 515.015 245.77C514.943 245.803 514.865 245.82 514.785 245.82Z" fill="#3F3D56"/>
<path d="M529.759 166.76C529.643 166.76 529.529 166.723 529.434 166.654C529.34 166.586 529.27 166.489 529.233 166.378C529.197 166.267 529.197 166.147 529.233 166.036C529.269 165.925 529.34 165.829 529.434 165.76C534.662 162.221 540.311 159.346 546.249 157.2C555.526 153.804 569.632 150.725 584.155 155.347C584.224 155.369 584.289 155.405 584.344 155.451C584.399 155.498 584.445 155.555 584.478 155.62C584.512 155.684 584.532 155.755 584.538 155.827C584.544 155.899 584.536 155.972 584.514 156.041C584.492 156.11 584.457 156.175 584.41 156.23C584.363 156.285 584.306 156.331 584.241 156.365C584.177 156.398 584.107 156.418 584.034 156.424C583.962 156.43 583.889 156.422 583.82 156.4C569.595 151.873 555.744 154.901 546.629 158.238C540.786 160.347 535.229 163.174 530.084 166.654C529.99 166.723 529.876 166.76 529.759 166.76Z" fill="#3F3D56"/>
<path d="M504.467 103.766C504.458 103.649 504.487 103.533 504.549 103.434C504.61 103.335 504.702 103.258 504.81 103.214C504.918 103.17 505.037 103.161 505.15 103.189C505.264 103.217 505.365 103.28 505.441 103.369C509.347 108.329 512.621 113.756 515.189 119.524C519.244 128.532 523.331 142.38 519.767 157.198C519.75 157.269 519.72 157.336 519.677 157.395C519.634 157.454 519.581 157.503 519.519 157.542C519.457 157.58 519.388 157.605 519.316 157.616C519.244 157.628 519.171 157.625 519.1 157.608C519.03 157.591 518.963 157.56 518.904 157.517C518.845 157.475 518.796 157.421 518.758 157.359C518.72 157.296 518.695 157.228 518.683 157.156C518.672 157.084 518.675 157.011 518.693 156.94C522.184 142.426 518.166 128.828 514.181 119.977C511.657 114.302 508.437 108.962 504.596 104.082C504.52 103.993 504.475 103.882 504.467 103.766Z" fill="#3F3D56"/>
<path d="M52.5497 186.101C49.7296 183.281 46.3751 181.053 42.6828 179.546C38.9905 178.039 35.0346 177.284 31.0468 177.325L30.7283 177.326C25.2896 177.328 19.948 175.885 15.2497 173.146L14.7609 172.861L15.1546 172.455C17.2864 170.249 19.0665 167.729 20.4324 164.983C19.4623 165.887 18.3052 166.567 17.0431 166.975C15.781 167.383 14.4447 167.508 13.1287 167.342C11.7394 167.177 10.4057 166.698 9.22753 165.944C8.04936 165.189 7.05736 164.178 6.32595 162.985C3.44004 158.302 0 151.658 0 146.597C0.0044912 142.319 0.900266 138.088 2.63024 134.175C4.36022 130.263 6.88644 126.753 10.0479 123.871C12.0493 122.066 13.648 119.86 14.7396 117.396C15.8312 114.932 16.3913 112.265 16.3833 109.571L16.3817 109.187C16.3812 105.639 16.8148 102.104 17.6728 98.6614L17.7599 98.3138L18.1176 98.3262C20.4242 98.4047 22.732 98.2114 24.9934 97.7502C22.8722 97.49 20.7971 96.9381 18.827 96.1101L18.4422 95.9545L18.5728 95.5601C27.5748 89.9864 47.8949 92.8728 59.6893 65.8879C69.253 44.0069 102.997 85.3118 102.997 109.187C102.997 111.623 100.586 114.843 102.391 116.453C121.901 133.859 108.439 145.036 104.195 156.283C103.188 158.952 105.371 161.881 105.371 164.768C105.371 165.258 105.359 165.764 105.334 166.271L105.297 167.051L104.646 166.618C103.359 165.775 102.166 164.797 101.088 163.7C102.207 166.275 102.734 169.068 102.631 171.873C102.528 174.679 101.797 177.425 100.492 179.911C98.4475 183.77 96.4694 186.533 94.6128 188.122C88.6656 193.212 80.9987 195.837 73.1801 195.461C65.3615 195.086 57.9816 191.737 52.5497 186.101H52.5497Z" fill="#E6E6E6"/>
<path d="M85.2147 244.16C85.3476 244.159 85.4761 244.111 85.5764 244.024C85.6768 243.937 85.7424 243.817 85.7611 243.685C87.2062 230.799 87.2926 217.796 86.0189 204.892C84.1115 184.534 77.9861 155.213 59.637 131.132C59.593 131.074 59.5381 131.026 59.4753 130.989C59.4126 130.953 59.3433 130.929 59.2714 130.919C59.1995 130.909 59.1263 130.914 59.0562 130.932C58.986 130.951 58.9202 130.983 58.8624 131.027C58.8047 131.071 58.7562 131.126 58.7197 131.189C58.6832 131.252 58.6595 131.321 58.6497 131.393C58.64 131.465 58.6446 131.538 58.6631 131.608C58.6817 131.678 58.7139 131.744 58.7578 131.802C76.9485 155.675 83.0245 184.781 84.9184 204.995C86.1853 217.813 86.1009 230.729 84.6669 243.529C84.6558 243.608 84.6617 243.687 84.6841 243.763C84.7066 243.839 84.7451 243.91 84.797 243.969C84.8489 244.029 84.9131 244.077 84.9852 244.11C85.0572 244.143 85.1355 244.16 85.2147 244.16Z" fill="#3F3D56"/>
<path d="M70.2406 165.1C70.3573 165.1 70.4711 165.063 70.5656 164.994C70.6601 164.926 70.7304 164.829 70.7665 164.718C70.8027 164.607 70.8027 164.487 70.7667 164.376C70.7306 164.265 70.6604 164.168 70.5659 164.1C65.3375 160.561 59.6893 157.686 53.7513 155.54C44.4744 152.144 30.3675 149.065 15.8447 153.687C15.7756 153.709 15.7114 153.744 15.656 153.791C15.6005 153.838 15.5548 153.895 15.5215 153.96C15.4881 154.024 15.4678 154.095 15.4617 154.167C15.4556 154.239 15.4637 154.312 15.4857 154.381C15.5077 154.45 15.5431 154.514 15.5899 154.57C15.6367 154.625 15.694 154.671 15.7585 154.704C15.8229 154.738 15.8933 154.758 15.9656 154.764C16.0379 154.77 16.1107 154.762 16.1798 154.74C30.4051 150.213 44.2563 153.241 53.3713 156.578C59.2138 158.687 64.7714 161.514 69.9162 164.994C70.0104 165.063 70.124 165.1 70.2406 165.1Z" fill="#3F3D56"/>
<path d="M95.5331 102.105C95.5416 101.989 95.513 101.873 95.4514 101.774C95.3899 101.675 95.2985 101.597 95.1904 101.553C95.0823 101.509 94.963 101.501 94.8496 101.529C94.7363 101.557 94.6347 101.62 94.5595 101.709C90.6531 106.669 87.3786 112.095 84.8113 117.863C80.7557 126.872 76.6687 140.72 80.233 155.538C80.2498 155.609 80.2804 155.676 80.323 155.735C80.3656 155.793 80.4195 155.843 80.4814 155.881C80.5433 155.919 80.6122 155.945 80.684 155.956C80.7558 155.968 80.8291 155.965 80.8998 155.948C80.9705 155.931 81.0371 155.9 81.0959 155.857C81.1547 155.814 81.2044 155.76 81.2423 155.698C81.2801 155.636 81.3054 155.567 81.3166 155.496C81.3278 155.424 81.3247 155.35 81.3075 155.28C77.8165 140.765 81.8343 127.168 85.8192 118.317C88.3429 112.642 91.5627 107.302 95.4044 102.421C95.4797 102.332 95.5247 102.222 95.5331 102.105Z" fill="#3F3D56"/>
</g>
<defs>
<clipPath id="clip0_21_1307">
<rect width="600" height="302.467" fill="white"/>
</clipPath>
</defs>
</svg>
