<svg width="361" height="382" viewBox="0 0 361 382" fill="none" xmlns="http://www.w3.org/2000/svg">
<g clip-path="url(#clip0_106_145)">
<path d="M138.407 233.953C140.458 237.682 140.073 241.698 137.545 242.924C135.018 244.15 131.307 242.121 129.255 238.392C128.357 236.76 127.926 235.073 127.937 233.588L119.456 217.686L127.488 214.108L134.997 230.164C136.293 231.014 137.509 232.321 138.407 233.953Z" fill="#FFB6B6"/>
<path d="M75.2889 377.439L82.5205 377.438L85.9605 351.248L75.2875 351.248L75.2889 377.439Z" fill="#FFB6B6"/>
<path d="M100.065 377.285C100.29 377.641 100.409 378.79 100.409 379.204C100.409 380.477 99.3102 381.509 97.9547 381.509H75.5595C74.6347 381.509 73.8851 380.805 73.8851 379.937V379.061C73.8851 379.061 72.7772 376.43 75.0581 373.187C75.0581 373.187 77.893 375.726 82.129 371.749L83.3782 369.624L92.4204 375.833L97.4324 376.413C98.5289 376.539 99.501 376.393 100.065 377.285V377.285Z" fill="#2F2E41"/>
<path d="M41.3628 377.439L48.5943 377.438L52.0344 351.248L41.3613 351.248L41.3628 377.439Z" fill="#FFB6B6"/>
<path d="M66.1389 377.285C66.3641 377.641 66.4829 378.79 66.4829 379.204C66.4829 380.477 65.384 381.509 64.0285 381.509H41.6333C40.7086 381.509 39.9589 380.805 39.9589 379.937V379.061C39.9589 379.061 38.8511 376.43 41.132 373.187C41.132 373.187 43.9669 375.726 48.2029 371.749L49.452 369.624L58.4942 375.833L63.5062 376.413C64.6027 376.539 65.5749 376.393 66.1389 377.285V377.285Z" fill="#2F2E41"/>
<path d="M31.1268 222.91L28.0803 240.39L37.5582 296.964L39.9276 365.298H52.7238L59.2218 300.778L58.5448 258.189L73.7771 365.934H87.0744L88.3324 230.855L31.1268 222.91Z" fill="#2F2E41"/>
<path d="M47.0361 132.328H70.9919L91.7174 143.77C88.4917 143 85.9997 171.099 85.915 195.928C85.9093 197.578 84.1682 199.474 84.1843 201.086C84.1982 202.474 85.9665 203.584 85.9972 204.931C86.0259 206.19 86.0621 207.428 86.106 208.64C86.1425 209.647 84.137 210.98 84.1843 211.948C84.2447 213.185 86.3613 214.044 86.4399 215.209C86.9231 222.366 87.7559 228.036 89.0094 230.855C89.0094 230.855 35.5273 244.84 31.4653 223.227C31.4653 223.227 31.6973 215.459 31.6647 204.732C31.6618 203.78 30.7986 202.917 30.7912 201.922C30.7857 201.182 31.6371 200.319 31.6288 199.559C31.6219 198.934 30.8001 198.381 30.7912 197.744C30.7858 197.364 31.5941 196.903 31.588 196.519C31.2632 176.12 29.8045 150.412 24.6954 143.769L47.0361 132.328V132.328Z" fill="#8CD6FF"/>
<path d="M70.7307 132.328C70.7307 132.328 86.2537 137.624 91.1793 141.844C93.7967 144.086 111.35 186.359 111.35 186.359L135.731 226.227L123.058 230.747L97.1333 193.987L85.6245 169.832L70.7307 132.328V132.328Z" fill="#8CD6FF"/>
<path d="M38.5332 235.462C40.7972 239.081 40.6444 243.111 38.1919 244.464C35.7394 245.816 31.9158 243.98 29.6518 240.361C28.6607 238.777 28.1329 237.114 28.0582 235.631L18.6696 220.185L26.4833 216.202L34.9093 231.852C36.2522 232.635 37.5421 233.878 38.5332 235.462Z" fill="#FFB6B6"/>
<path d="M43.6511 152.033L36.8812 137.413C36.8812 137.413 20.972 142.18 20.972 149.173C20.972 149.173 11.4941 202.568 12.8481 215.917L21.649 230.538L34.1733 221.32L26.3879 204.475L43.6511 152.033V152.033Z" fill="#8CD6FF"/>
<path d="M29.7281 247.017L37.7137 232.127L47.0361 244.204L38.6459 251.832L29.7281 247.017Z" fill="#2F2E41"/>
<path d="M58.7883 128.127C67.3451 128.127 74.2817 121.614 74.2817 113.58C74.2817 105.545 67.3451 99.0321 58.7883 99.0321C50.2315 99.0321 43.2948 105.545 43.2948 113.58C43.2948 121.614 50.2315 128.127 58.7883 128.127Z" fill="#FFB6B6"/>
<path d="M70.8698 97.3288C68.1774 96.5191 66.9034 93.512 64.4406 92.2085C61.717 90.7669 58.4586 89.867 55.4552 90.6827C53.6123 91.1831 52.0068 92.2892 50.1627 92.7855C49.8403 92.8723 49.5011 92.9321 49.1568 92.9629C47.1735 93.1403 45.4709 94.2571 44.4797 95.8798L44.4538 95.9217C43.8719 96.8567 43.0449 97.631 42.3108 98.4662C39.6322 101.514 38.1824 105.475 38.2122 109.426C38.2443 113.674 39.9849 117.891 43.0097 121.05L43.7823 120.715C45.6496 122.23 47.5169 123.744 49.3842 125.259C48.368 121.816 47.3423 118.252 47.8803 114.716C48.4183 111.179 50.9513 107.65 54.6861 106.967C56.0989 106.709 57.5891 106.865 58.9605 106.455C60.3321 106.045 61.5953 104.721 61.1248 103.444C61.9741 105.552 65.1417 105.427 67.3219 106.371C72.2015 108.482 70.4153 105.219 74.6511 108.322C76.0819 100.877 81.5626 100.544 70.8698 97.3288L70.8698 97.3288Z" fill="#2F2E41"/>
<path d="M0 381.006C0 381.557 0.471666 382 1.05902 382H359.941C360.528 382 361 381.557 361 381.006C361 380.454 360.528 380.011 359.941 380.011H1.05902C0.471666 380.011 0 380.454 0 381.006Z" fill="#CCCCCC"/>
<path d="M312.992 382H155.994C136.851 382 121.277 367.376 121.277 349.402V32.5981C121.277 14.6236 136.851 0 155.994 0H312.992C332.135 0 347.709 14.6236 347.709 32.5981V349.402C347.709 367.376 332.135 382 312.992 382V382Z" fill="#3F3D56"/>
<path d="M347.709 116.531C346.899 116.531 346.241 117.149 346.241 117.91V162.04C346.241 162.8 346.899 163.419 347.709 163.419C348.519 163.419 349.178 162.8 349.178 162.04V117.91C349.178 117.149 348.519 116.531 347.709 116.531Z" fill="#3F3D56"/>
<path d="M344.405 32.5984V349.396C344.405 365.042 331.436 377.839 315.038 378.832H315.031C314.788 378.846 314.546 378.86 314.296 378.867C313.863 378.887 313.43 378.894 312.989 378.894C312.989 378.894 311.374 378.784 308.421 378.577C305.44 378.37 301.1 378.06 295.688 377.653C294.065 377.536 292.354 377.405 290.547 377.267C286.949 376.991 282.998 376.688 278.761 376.343C277.072 376.212 275.324 376.067 273.539 375.922C264.419 375.185 254.204 374.323 243.431 373.344C241.61 373.185 239.774 373.019 237.923 372.847C237.438 372.799 236.946 372.757 236.454 372.709C228.773 371.999 124.582 353.092 124.582 349.396V32.5984C124.582 16.3048 138.645 3.1003 155.998 3.1003H174.753C177.749 3.1003 180.158 5.293 180.415 8.09939C180.437 8.28558 180.459 8.47172 180.496 8.65791C181.039 11.4781 183.793 13.4433 186.848 13.4433H282.139C285.194 13.4433 287.947 11.4781 288.491 8.65791C288.528 8.47172 288.55 8.28558 288.572 8.09939C288.829 5.293 291.237 3.1003 294.234 3.1003H312.989C330.342 3.1003 344.405 16.3048 344.405 32.5984V32.5984Z" fill="white"/>
<path d="M120.543 83.4333C119.733 83.4333 119.074 84.0517 119.074 84.8123V95.8448C119.074 96.6054 119.733 97.2238 120.543 97.2238C121.353 97.2238 122.011 96.6054 122.011 95.8448V84.8123C122.011 84.0517 121.353 83.4333 120.543 83.4333Z" fill="#3F3D56"/>
<path d="M120.543 116.531C119.733 116.531 119.074 117.149 119.074 117.91V139.285C119.074 140.046 119.733 140.664 120.543 140.664C121.353 140.664 122.011 140.046 122.011 139.285V117.91C122.011 117.149 121.353 116.531 120.543 116.531Z" fill="#3F3D56"/>
<path d="M120.543 146.87C119.733 146.87 119.074 147.489 119.074 148.249V169.625C119.074 170.385 119.733 171.004 120.543 171.004C121.353 171.004 122.011 170.385 122.011 169.625V148.249C122.011 147.488 121.353 146.87 120.543 146.87Z" fill="#3F3D56"/>
<path d="M174.242 7.9297H146.154C146.002 7.9297 145.878 8.04575 145.878 8.1889V11.1182C145.878 11.2613 146.002 11.3774 146.154 11.3774H174.242C174.394 11.3774 174.518 11.2613 174.518 11.1182V8.1889C174.518 8.04575 174.394 7.9297 174.242 7.9297Z" fill="#E6E6E6"/>
<path d="M298.875 11.3774C300.497 11.3774 301.812 10.1425 301.812 8.61924C301.812 7.09597 300.497 5.86111 298.875 5.86111C297.252 5.86111 295.937 7.09597 295.937 8.61924C295.937 10.1425 297.252 11.3774 298.875 11.3774Z" fill="#E6E6E6"/>
<path d="M306.953 11.3774C308.575 11.3774 309.89 10.1425 309.89 8.61924C309.89 7.09597 308.575 5.86111 306.953 5.86111C305.33 5.86111 304.015 7.09597 304.015 8.61924C304.015 10.1425 305.33 11.3774 306.953 11.3774Z" fill="#E6E6E6"/>
<path d="M315.03 11.3774C316.653 11.3774 317.968 10.1425 317.968 8.61924C317.968 7.09597 316.653 5.86111 315.03 5.86111C313.408 5.86111 312.093 7.09597 312.093 8.61924C312.093 10.1425 313.408 11.3774 315.03 11.3774Z" fill="#E6E6E6"/>
<path d="M296.785 79.5114H172.201C170.239 79.5114 168.642 78.012 168.642 76.1692C168.642 74.3263 170.239 72.8269 172.201 72.8269H296.785C298.748 72.8269 300.345 74.3263 300.345 76.1692C300.345 78.012 298.748 79.5114 296.785 79.5114Z" fill="#E6E6E6"/>
<path d="M317.734 343.967H271.459C269.497 343.967 267.9 342.468 267.9 340.625C267.9 338.782 269.497 337.283 271.459 337.283H317.734C319.696 337.283 321.293 338.782 321.293 340.625C321.293 342.468 319.696 343.967 317.734 343.967Z" fill="#E6E6E6"/>
<path d="M194.039 343.967H147.765C145.803 343.967 144.206 342.468 144.206 340.625C144.206 338.782 145.803 337.283 147.765 337.283H194.039C196.002 337.283 197.599 338.782 197.599 340.625C197.599 342.468 196.002 343.967 194.039 343.967Z" fill="#E6E6E6"/>
<path d="M321.293 88.4921H147.693V89.3277H321.293V88.4921Z" fill="#3F3D56"/>
<path d="M296.785 130.481H172.201C170.239 130.481 168.642 128.981 168.642 127.139C168.642 125.296 170.239 123.796 172.201 123.796H296.785C298.748 123.796 300.345 125.296 300.345 127.139C300.345 128.981 298.748 130.481 296.785 130.481Z" fill="#E6E6E6"/>
<path d="M321.293 139.462H147.693V140.297H321.293V139.462Z" fill="#3F3D56"/>
<path d="M296.785 181.45H172.201C170.239 181.45 168.642 179.951 168.642 178.108C168.642 176.265 170.239 174.766 172.201 174.766H296.785C298.748 174.766 300.345 176.265 300.345 178.108C300.345 179.951 298.748 181.45 296.785 181.45Z" fill="#E6E6E6"/>
<path d="M321.293 190.431H147.693V191.266H321.293V190.431Z" fill="#3F3D56"/>
<path d="M321.293 233.88H147.693V234.716H321.293V233.88Z" fill="#3F3D56"/>
<path d="M321.293 277.33H147.693V278.165H321.293V277.33Z" fill="#3F3D56"/>
<path d="M235.715 307.893C264.22 307.893 287.328 286.196 287.328 259.431C287.328 232.666 264.22 210.968 235.715 210.968C207.21 210.968 184.102 232.666 184.102 259.431C184.102 286.196 207.21 307.893 235.715 307.893Z" fill="#8CD6FF"/>
</g>
<defs>
<clipPath id="clip0_106_145">
<rect width="361" height="382" fill="white"/>
</clipPath>
</defs>
</svg>
