<svg width="404" height="387" viewBox="0 0 404 387" fill="none" xmlns="http://www.w3.org/2000/svg">
<g clip-path="url(#clip0_14_312)">
<path d="M235.329 68.2236C242.901 68.2236 249.039 60.1393 249.039 50.1667C249.039 40.1942 242.901 32.1098 235.329 32.1098C227.758 32.1098 221.62 40.1942 221.62 50.1667C221.62 60.1393 227.758 68.2236 235.329 68.2236Z" fill="#F2F2F2"/>
<path d="M341.68 336.208C362.058 315.765 371.791 281.413 365.698 248.643C365.547 247.829 365.387 247.017 365.219 246.206C361.179 226.755 351.185 208.267 336.619 202.052C324.388 196.833 311.039 200.846 298.279 198.771C273.232 194.697 253.813 168.005 240.15 140.058C226.486 112.111 215.986 80.8279 197.83 57.7395C167.903 19.6822 119.085 11.4885 81.9796 36.2609C44.8747 61.0334 21.2392 115.993 22.2471 170.768C23.2552 225.542 47.9439 277.91 83.798 305.695C96.9694 315.902 112.203 323.132 127.364 320.602C140.519 318.407 152.472 309.097 165.565 306.333C186.15 301.988 206.604 314.246 224.409 328.531C242.213 342.816 259.411 359.747 279.644 366.37C299.289 372.8 323.628 354.317 341.68 336.208Z" fill="#F2F2F2"/>
<path d="M312.402 37.4112C311.955 37.0189 311.503 36.647 311.057 36.2683C298.144 25.391 284.303 16.5544 269.821 9.94112L266.463 70.9541H245.175V1.03466C243.835 0.669475 242.484 0.324578 241.134 -3.05176e-05V70.9541H215.836C201.909 70.9541 188.552 63.6674 178.704 50.697C168.857 37.7267 163.324 20.135 163.324 1.79216V1.7921C161.969 2.17757 160.623 2.5901 159.278 3.02967V70.9541H138.673L135.474 12.7747C120.591 20.2923 106.462 30.1783 93.4013 42.2127C93.1754 42.4156 92.9494 42.6252 92.7286 42.8281C91.5939 43.8763 90.4746 44.9448 89.3604 46.0268V278.792H150.087L149.014 259.214L143.109 151.721H262.021L256.117 259.214L255.043 278.792H315.098V39.7646C314.204 38.9666 313.306 38.1821 312.402 37.4112ZM159.278 133.969H142.134L138.966 76.2831H159.278V133.969ZM241.134 133.969H212.339V132.826C212.339 132.276 212.257 131.732 212.097 131.225C211.937 130.717 211.703 130.256 211.408 129.868C211.113 129.48 210.762 129.172 210.377 128.963C209.991 128.753 209.578 128.646 209.161 128.647H196.643C196.226 128.646 195.813 128.754 195.428 128.964C195.043 129.174 194.693 129.482 194.398 129.87C194.104 130.258 193.87 130.719 193.711 131.226C193.551 131.733 193.469 132.277 193.469 132.826V133.969H163.324V76.2831H241.134V133.969ZM245.175 133.969V76.2831H266.17L263.002 133.969H245.175Z" fill="#3F3D56"/>
<path d="M-2.28882e-05 293.697C4.46053 300.658 9.28512 307.2 14.4385 313.275L389.562 313.952C394.715 307.877 399.539 301.335 404 294.374L-2.28882e-05 293.697Z" fill="#3F3D56"/>
<path d="M254.383 231.008V288.966C254.384 289.705 254.606 290.413 255.003 290.936C255.4 291.458 255.937 291.751 256.498 291.752H321.71C322.27 291.751 322.808 291.458 323.205 290.936C323.601 290.413 323.824 289.705 323.825 288.966V231.008C323.823 230.27 323.6 229.562 323.204 229.041C322.807 228.519 322.27 228.226 321.71 228.225H256.498C255.938 228.226 255.401 228.519 255.004 229.041C254.608 229.562 254.384 230.27 254.383 231.008Z" fill="#3F3D56"/>
<path d="M255.913 231.729V288.251C255.913 288.646 256.033 289.024 256.245 289.303C256.456 289.582 256.744 289.74 257.043 289.74H321.167C321.466 289.74 321.754 289.582 321.966 289.303C322.177 289.024 322.297 288.646 322.297 288.251V231.729C322.297 231.334 322.178 230.955 321.966 230.675C321.754 230.395 321.467 230.238 321.167 230.237H257.043C256.743 230.238 256.456 230.395 256.244 230.675C256.032 230.955 255.913 231.334 255.913 231.729Z" fill="#8CD6FF"/>
<path d="M253.019 300.27C253.139 300.467 253.291 300.626 253.463 300.735C253.636 300.844 253.826 300.9 254.017 300.899H323.843C324.034 300.898 324.223 300.842 324.395 300.734C324.568 300.625 324.719 300.468 324.84 300.273C324.96 300.077 325.046 299.849 325.091 299.605C325.136 299.36 325.139 299.106 325.099 298.859L324.016 292.078C323.971 291.802 323.874 291.544 323.734 291.33C323.594 291.115 323.416 290.95 323.215 290.849C323.07 290.774 322.916 290.735 322.76 290.736H255.097C254.941 290.735 254.786 290.774 254.641 290.849C254.44 290.95 254.262 291.115 254.122 291.33C253.982 291.544 253.886 291.802 253.841 292.078L252.757 298.859C252.718 299.105 252.722 299.36 252.767 299.604C252.813 299.848 252.899 300.075 253.019 300.27Z" fill="#2F2E41"/>
<path d="M320.364 293.656H322.013C322.151 293.656 322.264 293.509 322.264 293.326V292.287C322.264 292.105 322.151 291.957 322.013 291.957H320.364C320.225 291.957 320.113 292.105 320.113 292.287V293.326C320.113 293.509 320.225 293.656 320.364 293.656Z" fill="#3F3D56"/>
<path d="M316.062 293.656H317.712C317.85 293.656 317.962 293.509 317.962 293.326V292.287C317.962 292.105 317.85 291.957 317.712 291.957H316.062C315.924 291.957 315.812 292.105 315.812 292.287V293.326C315.812 293.509 315.924 293.656 316.062 293.656Z" fill="#3F3D56"/>
<path d="M311.761 293.656H313.41C313.549 293.656 313.661 293.509 313.661 293.326V292.287C313.661 292.105 313.549 291.957 313.41 291.957H311.761C311.623 291.957 311.51 292.105 311.51 292.287V293.326C311.51 293.509 311.623 293.656 311.761 293.656Z" fill="#3F3D56"/>
<path d="M307.46 293.656H309.109C309.248 293.656 309.36 293.509 309.36 293.326V292.287C309.36 292.105 309.248 291.957 309.109 291.957H307.46C307.321 291.957 307.209 292.105 307.209 292.287V293.326C307.209 293.509 307.321 293.656 307.46 293.656Z" fill="#3F3D56"/>
<path d="M303.159 293.656H304.808C304.946 293.656 305.059 293.509 305.059 293.326V292.287C305.059 292.105 304.946 291.957 304.808 291.957H303.159C303.02 291.957 302.908 292.105 302.908 292.287V293.326C302.908 293.509 303.02 293.656 303.159 293.656Z" fill="#3F3D56"/>
<path d="M298.857 293.656H300.507C300.645 293.656 300.757 293.509 300.757 293.326V292.287C300.757 292.105 300.645 291.957 300.507 291.957H298.857C298.719 291.957 298.607 292.105 298.607 292.287V293.326C298.607 293.509 298.719 293.656 298.857 293.656Z" fill="#3F3D56"/>
<path d="M294.556 293.656H296.206C296.344 293.656 296.456 293.509 296.456 293.326V292.287C296.456 292.105 296.344 291.957 296.206 291.957H294.556C294.418 291.957 294.306 292.105 294.306 292.287V293.326C294.306 293.509 294.418 293.656 294.556 293.656Z" fill="#3F3D56"/>
<path d="M290.255 293.656H291.904C292.043 293.656 292.155 293.509 292.155 293.326V292.287C292.155 292.105 292.043 291.957 291.904 291.957H290.255C290.117 291.957 290.004 292.105 290.004 292.287V293.326C290.004 293.509 290.117 293.656 290.255 293.656Z" fill="#3F3D56"/>
<path d="M285.954 293.656H287.603C287.741 293.656 287.854 293.509 287.854 293.326V292.287C287.854 292.105 287.741 291.957 287.603 291.957H285.954C285.815 291.957 285.703 292.105 285.703 292.287V293.326C285.703 293.509 285.815 293.656 285.954 293.656Z" fill="#3F3D56"/>
<path d="M281.652 293.656H283.302C283.44 293.656 283.552 293.509 283.552 293.326V292.287C283.552 292.105 283.44 291.957 283.302 291.957H281.652C281.514 291.957 281.402 292.105 281.402 292.287V293.326C281.402 293.509 281.514 293.656 281.652 293.656Z" fill="#3F3D56"/>
<path d="M277.351 293.656H279.001C279.139 293.656 279.251 293.509 279.251 293.326V292.287C279.251 292.105 279.139 291.957 279.001 291.957H277.351C277.213 291.957 277.101 292.105 277.101 292.287V293.326C277.101 293.509 277.213 293.656 277.351 293.656Z" fill="#3F3D56"/>
<path d="M273.05 293.656H274.699C274.838 293.656 274.95 293.509 274.95 293.326V292.287C274.95 292.105 274.838 291.957 274.699 291.957H273.05C272.912 291.957 272.799 292.105 272.799 292.287V293.326C272.799 293.509 272.912 293.656 273.05 293.656Z" fill="#3F3D56"/>
<path d="M268.749 293.656H270.398C270.537 293.656 270.649 293.509 270.649 293.326V292.287C270.649 292.105 270.537 291.957 270.398 291.957H268.749C268.61 291.957 268.498 292.105 268.498 292.287V293.326C268.498 293.509 268.61 293.656 268.749 293.656Z" fill="#3F3D56"/>
<path d="M264.448 293.656H266.097C266.235 293.656 266.348 293.509 266.348 293.326V292.287C266.348 292.105 266.235 291.957 266.097 291.957H264.448C264.309 291.957 264.197 292.105 264.197 292.287V293.326C264.197 293.509 264.309 293.656 264.448 293.656Z" fill="#3F3D56"/>
<path d="M260.146 293.656H261.796C261.934 293.656 262.046 293.509 262.046 293.326V292.287C262.046 292.105 261.934 291.957 261.796 291.957H260.146C260.008 291.957 259.896 292.105 259.896 292.287V293.326C259.896 293.509 260.008 293.656 260.146 293.656Z" fill="#3F3D56"/>
<path d="M255.845 293.656H257.494C257.633 293.656 257.745 293.509 257.745 293.326V292.287C257.745 292.105 257.633 291.957 257.494 291.957H255.845C255.707 291.957 255.594 292.105 255.594 292.287V293.326C255.594 293.509 255.707 293.656 255.845 293.656Z" fill="#3F3D56"/>
<path d="M320.414 296.489H322.064C322.202 296.489 322.314 296.341 322.314 296.159V295.12C322.314 294.937 322.202 294.789 322.064 294.789H320.414C320.276 294.789 320.164 294.937 320.164 295.12V296.159C320.164 296.341 320.276 296.489 320.414 296.489Z" fill="#3F3D56"/>
<path d="M316.113 296.489H317.763C317.901 296.489 318.013 296.341 318.013 296.159V295.12C318.013 294.937 317.901 294.789 317.763 294.789H316.113C315.975 294.789 315.863 294.937 315.863 295.12V296.159C315.863 296.341 315.975 296.489 316.113 296.489Z" fill="#3F3D56"/>
<path d="M311.812 296.489H313.461C313.6 296.489 313.712 296.341 313.712 296.159V295.12C313.712 294.937 313.6 294.789 313.461 294.789H311.812C311.674 294.789 311.561 294.937 311.561 295.12V296.159C311.561 296.341 311.674 296.489 311.812 296.489Z" fill="#3F3D56"/>
<path d="M307.511 296.489H309.16C309.298 296.489 309.411 296.341 309.411 296.159V295.12C309.411 294.937 309.298 294.789 309.16 294.789H307.511C307.372 294.789 307.26 294.937 307.26 295.12V296.159C307.26 296.341 307.372 296.489 307.511 296.489Z" fill="#3F3D56"/>
<path d="M303.21 296.489H304.859C304.997 296.489 305.109 296.341 305.109 296.159V295.12C305.109 294.937 304.997 294.789 304.859 294.789H303.21C303.071 294.789 302.959 294.937 302.959 295.12V296.159C302.959 296.341 303.071 296.489 303.21 296.489Z" fill="#3F3D56"/>
<path d="M298.908 296.489H300.558C300.696 296.489 300.808 296.341 300.808 296.159V295.12C300.808 294.937 300.696 294.789 300.558 294.789H298.908C298.77 294.789 298.658 294.937 298.658 295.12V296.159C298.658 296.341 298.77 296.489 298.908 296.489Z" fill="#3F3D56"/>
<path d="M294.607 296.489H296.256C296.395 296.489 296.507 296.341 296.507 296.159V295.12C296.507 294.937 296.395 294.789 296.256 294.789H294.607C294.469 294.789 294.356 294.937 294.356 295.12V296.159C294.356 296.341 294.469 296.489 294.607 296.489Z" fill="#3F3D56"/>
<path d="M290.306 296.489H291.955C292.094 296.489 292.206 296.341 292.206 296.159V295.12C292.206 294.937 292.094 294.789 291.955 294.789H290.306C290.167 294.789 290.055 294.937 290.055 295.12V296.159C290.055 296.341 290.167 296.489 290.306 296.489Z" fill="#3F3D56"/>
<path d="M286.005 296.489H287.654C287.792 296.489 287.904 296.341 287.904 296.159V295.12C287.904 294.937 287.792 294.789 287.654 294.789H286.005C285.866 294.789 285.754 294.937 285.754 295.12V296.159C285.754 296.341 285.866 296.489 286.005 296.489Z" fill="#3F3D56"/>
<path d="M281.703 296.489H283.353C283.491 296.489 283.603 296.341 283.603 296.159V295.12C283.603 294.937 283.491 294.789 283.353 294.789H281.703C281.565 294.789 281.453 294.937 281.453 295.12V296.159C281.453 296.341 281.565 296.489 281.703 296.489Z" fill="#3F3D56"/>
<path d="M277.402 296.489H279.051C279.19 296.489 279.302 296.341 279.302 296.159V295.12C279.302 294.937 279.19 294.789 279.051 294.789H277.402C277.264 294.789 277.151 294.937 277.151 295.12V296.159C277.151 296.341 277.264 296.489 277.402 296.489Z" fill="#3F3D56"/>
<path d="M273.101 296.489H274.75C274.889 296.489 275.001 296.341 275.001 296.159V295.12C275.001 294.937 274.889 294.789 274.75 294.789H273.101C272.962 294.789 272.85 294.937 272.85 295.12V296.159C272.85 296.341 272.962 296.489 273.101 296.489Z" fill="#3F3D56"/>
<path d="M268.8 296.489H270.449C270.587 296.489 270.7 296.341 270.7 296.159V295.12C270.7 294.937 270.587 294.789 270.449 294.789H268.8C268.661 294.789 268.549 294.937 268.549 295.12V296.159C268.549 296.341 268.661 296.489 268.8 296.489Z" fill="#3F3D56"/>
<path d="M264.498 296.489H266.148C266.286 296.489 266.398 296.341 266.398 296.159V295.12C266.398 294.937 266.286 294.789 266.148 294.789H264.498C264.36 294.789 264.248 294.937 264.248 295.12V296.159C264.248 296.341 264.36 296.489 264.498 296.489Z" fill="#3F3D56"/>
<path d="M260.197 296.489H261.846C261.985 296.489 262.097 296.341 262.097 296.159V295.12C262.097 294.937 261.985 294.789 261.846 294.789H260.197C260.059 294.789 259.946 294.937 259.946 295.12V296.159C259.946 296.341 260.059 296.489 260.197 296.489Z" fill="#3F3D56"/>
<path d="M255.896 296.489H257.545C257.684 296.489 257.796 296.341 257.796 296.159V295.12C257.796 294.937 257.684 294.789 257.545 294.789H255.896C255.757 294.789 255.645 294.937 255.645 295.12V296.159C255.645 296.341 255.757 296.489 255.896 296.489Z" fill="#3F3D56"/>
<path d="M284.714 299.888H301.418C301.556 299.888 301.668 299.74 301.668 299.558V298.519C301.668 298.336 301.556 298.188 301.418 298.188H284.714C284.576 298.188 284.464 298.336 284.464 298.519V299.558C284.464 299.74 284.576 299.888 284.714 299.888Z" fill="#3F3D56"/>
<path d="M267.017 242.603H265.557C265.114 242.603 264.756 243.075 264.756 243.658C264.756 244.241 265.114 244.714 265.557 244.714H267.017C267.46 244.714 267.819 244.241 267.819 243.658C267.819 243.075 267.46 242.603 267.017 242.603Z" fill="white"/>
<path d="M283.716 242.603H282.256C281.814 242.603 281.455 243.075 281.455 243.658C281.455 244.241 281.814 244.714 282.256 244.714H283.716C284.159 244.714 284.518 244.241 284.518 243.658C284.518 243.075 284.159 242.603 283.716 242.603Z" fill="white"/>
<path d="M288.448 242.603H286.988C286.545 242.603 286.186 243.075 286.186 243.658C286.186 244.241 286.545 244.714 286.988 244.714H288.448C288.891 244.714 289.249 244.241 289.249 243.658C289.249 243.075 288.891 242.603 288.448 242.603Z" fill="white"/>
<path d="M279.174 242.427H270.099C269.657 242.427 269.298 242.899 269.298 243.482C269.298 244.065 269.657 244.538 270.099 244.538H279.174C279.617 244.538 279.976 244.065 279.976 243.482C279.976 242.899 279.617 242.427 279.174 242.427Z" fill="white"/>
<path d="M301.44 242.427H292.365C291.922 242.427 291.563 242.899 291.563 243.482C291.563 244.065 291.922 244.538 292.365 244.538H301.44C301.883 244.538 302.241 244.065 302.241 243.482C302.241 242.899 301.883 242.427 301.44 242.427Z" fill="white"/>
<path d="M271.47 247.368H270.01C269.568 247.368 269.209 247.841 269.209 248.424C269.209 249.007 269.568 249.479 270.01 249.479H271.47C271.913 249.479 272.272 249.007 272.272 248.424C272.272 247.841 271.913 247.368 271.47 247.368Z" fill="white"/>
<path d="M288.17 247.368H286.709C286.267 247.368 285.908 247.841 285.908 248.424C285.908 249.007 286.267 249.479 286.709 249.479H288.17C288.612 249.479 288.971 249.007 288.971 248.424C288.971 247.841 288.612 247.368 288.17 247.368Z" fill="white"/>
<path d="M292.901 247.368H291.441C290.998 247.368 290.639 247.841 290.639 248.424C290.639 249.007 290.998 249.479 291.441 249.479H292.901C293.344 249.479 293.703 249.007 293.703 248.424C293.703 247.841 293.344 247.368 292.901 247.368Z" fill="white"/>
<path d="M283.627 247.192H274.552C274.11 247.192 273.751 247.665 273.751 248.248C273.751 248.831 274.11 249.303 274.552 249.303H283.627C284.07 249.303 284.429 248.831 284.429 248.248C284.429 247.665 284.07 247.192 283.627 247.192Z" fill="white"/>
<path d="M305.893 247.192H296.818C296.375 247.192 296.017 247.665 296.017 248.248C296.017 248.831 296.375 249.303 296.818 249.303H305.893C306.336 249.303 306.695 248.831 306.695 248.248C306.695 247.665 306.336 247.192 305.893 247.192Z" fill="white"/>
<path d="M275.923 252.134H274.463C274.021 252.134 273.662 252.606 273.662 253.189C273.662 253.772 274.021 254.245 274.463 254.245H275.923C276.366 254.245 276.725 253.772 276.725 253.189C276.725 252.606 276.366 252.134 275.923 252.134Z" fill="white"/>
<path d="M292.623 252.134H291.163C290.72 252.134 290.361 252.606 290.361 253.189C290.361 253.772 290.72 254.245 291.163 254.245H292.623C293.065 254.245 293.424 253.772 293.424 253.189C293.424 252.606 293.065 252.134 292.623 252.134Z" fill="white"/>
<path d="M297.354 252.134H295.894C295.451 252.134 295.092 252.606 295.092 253.189C295.092 253.772 295.451 254.245 295.894 254.245H297.354C297.797 254.245 298.156 253.772 298.156 253.189C298.156 252.606 297.797 252.134 297.354 252.134Z" fill="white"/>
<path d="M288.08 251.957H279.006C278.563 251.957 278.204 252.43 278.204 253.013C278.204 253.596 278.563 254.069 279.006 254.069H288.08C288.523 254.069 288.882 253.596 288.882 253.013C288.882 252.43 288.523 251.957 288.08 251.957Z" fill="white"/>
<path d="M310.346 251.957H301.271C300.829 251.957 300.47 252.43 300.47 253.013C300.47 253.596 300.829 254.069 301.271 254.069H310.346C310.789 254.069 311.148 253.596 311.148 253.013C311.148 252.43 310.789 251.957 310.346 251.957Z" fill="white"/>
<path d="M280.377 256.899H278.917C278.474 256.899 278.115 257.372 278.115 257.955C278.115 258.538 278.474 259.01 278.917 259.01H280.377C280.819 259.01 281.178 258.538 281.178 257.955C281.178 257.372 280.819 256.899 280.377 256.899Z" fill="white"/>
<path d="M297.076 256.899H295.616C295.173 256.899 294.814 257.372 294.814 257.955C294.814 258.538 295.173 259.01 295.616 259.01H297.076C297.519 259.01 297.877 258.538 297.877 257.955C297.877 257.372 297.519 256.899 297.076 256.899Z" fill="white"/>
<path d="M301.807 256.899H300.347C299.904 256.899 299.546 257.372 299.546 257.955C299.546 258.538 299.904 259.01 300.347 259.01H301.807C302.25 259.01 302.609 258.538 302.609 257.955C302.609 257.372 302.25 256.899 301.807 256.899Z" fill="white"/>
<path d="M292.534 256.723H283.459C283.016 256.723 282.657 257.196 282.657 257.779C282.657 258.362 283.016 258.834 283.459 258.834H292.534C292.976 258.834 293.335 258.362 293.335 257.779C293.335 257.196 292.976 256.723 292.534 256.723Z" fill="white"/>
<path d="M283.716 275.848H282.256C281.814 275.848 281.455 276.321 281.455 276.904C281.455 277.487 281.814 277.96 282.256 277.96H283.716C284.159 277.96 284.518 277.487 284.518 276.904C284.518 276.321 284.159 275.848 283.716 275.848Z" fill="white"/>
<path d="M288.448 275.848H286.988C286.545 275.848 286.186 276.321 286.186 276.904C286.186 277.487 286.545 277.96 286.988 277.96H288.448C288.891 277.96 289.249 277.487 289.249 276.904C289.249 276.321 288.891 275.848 288.448 275.848Z" fill="white"/>
<path d="M301.44 276.024H292.365C291.922 276.024 291.563 276.497 291.563 277.08C291.563 277.663 291.922 278.136 292.365 278.136H301.44C301.883 278.136 302.241 277.663 302.241 277.08C302.241 276.497 301.883 276.024 301.44 276.024Z" fill="white"/>
<path d="M267.017 275.848H265.557C265.114 275.848 264.756 276.321 264.756 276.904C264.756 277.487 265.114 277.96 265.557 277.96H267.017C267.46 277.96 267.819 277.487 267.819 276.904C267.819 276.321 267.46 275.848 267.017 275.848Z" fill="white"/>
<path d="M279.174 276.024H270.099C269.657 276.024 269.298 276.497 269.298 277.08C269.298 277.663 269.657 278.136 270.099 278.136H279.174C279.617 278.136 279.976 277.663 279.976 277.08C279.976 276.497 279.617 276.024 279.174 276.024Z" fill="white"/>
<path d="M271.47 271.083H270.01C269.568 271.083 269.209 271.556 269.209 272.139C269.209 272.722 269.568 273.194 270.01 273.194H271.47C271.913 273.194 272.272 272.722 272.272 272.139C272.272 271.556 271.913 271.083 271.47 271.083Z" fill="white"/>
<path d="M288.17 271.083H286.709C286.267 271.083 285.908 271.556 285.908 272.139C285.908 272.722 286.267 273.194 286.709 273.194H288.17C288.612 273.194 288.971 272.722 288.971 272.139C288.971 271.556 288.612 271.083 288.17 271.083Z" fill="white"/>
<path d="M292.901 271.083H291.441C290.998 271.083 290.639 271.556 290.639 272.139C290.639 272.722 290.998 273.194 291.441 273.194H292.901C293.344 273.194 293.703 272.722 293.703 272.139C293.703 271.556 293.344 271.083 292.901 271.083Z" fill="white"/>
<path d="M283.627 271.259H274.552C274.11 271.259 273.751 271.732 273.751 272.315C273.751 272.898 274.11 273.37 274.552 273.37H283.627C284.07 273.37 284.429 272.898 284.429 272.315C284.429 271.732 284.07 271.259 283.627 271.259Z" fill="white"/>
<path d="M275.923 266.317H274.463C274.021 266.317 273.662 266.79 273.662 267.373C273.662 267.956 274.021 268.429 274.463 268.429H275.923C276.366 268.429 276.725 267.956 276.725 267.373C276.725 266.79 276.366 266.317 275.923 266.317Z" fill="white"/>
<path d="M292.623 266.317H291.163C290.72 266.317 290.361 266.79 290.361 267.373C290.361 267.956 290.72 268.429 291.163 268.429H292.623C293.065 268.429 293.424 267.956 293.424 267.373C293.424 266.79 293.065 266.317 292.623 266.317Z" fill="white"/>
<path d="M297.354 266.317H295.894C295.451 266.317 295.092 266.79 295.092 267.373C295.092 267.956 295.451 268.429 295.894 268.429H297.354C297.797 268.429 298.156 267.956 298.156 267.373C298.156 266.79 297.797 266.317 297.354 266.317Z" fill="white"/>
<path d="M288.08 266.493H279.006C278.563 266.493 278.204 266.966 278.204 267.549C278.204 268.132 278.563 268.605 279.006 268.605H288.08C288.523 268.605 288.882 268.132 288.882 267.549C288.882 266.966 288.523 266.493 288.08 266.493Z" fill="white"/>
<path d="M280.377 261.552H278.917C278.474 261.552 278.115 262.025 278.115 262.608C278.115 263.191 278.474 263.663 278.917 263.663H280.377C280.819 263.663 281.178 263.191 281.178 262.608C281.178 262.025 280.819 261.552 280.377 261.552Z" fill="white"/>
<path d="M297.076 261.552H295.616C295.173 261.552 294.814 262.025 294.814 262.608C294.814 263.191 295.173 263.663 295.616 263.663H297.076C297.519 263.663 297.877 263.191 297.877 262.608C297.877 262.025 297.519 261.552 297.076 261.552Z" fill="white"/>
<path d="M301.807 261.552H300.347C299.904 261.552 299.546 262.025 299.546 262.608C299.546 263.191 299.904 263.663 300.347 263.663H301.807C302.25 263.663 302.609 263.191 302.609 262.608C302.609 262.025 302.25 261.552 301.807 261.552Z" fill="white"/>
<path d="M292.534 261.728H283.459C283.016 261.728 282.657 262.201 282.657 262.784C282.657 263.367 283.016 263.839 283.459 263.839H292.534C292.976 263.839 293.335 263.367 293.335 262.784C293.335 262.201 292.976 261.728 292.534 261.728Z" fill="white"/>
<path d="M259.254 331.697L252.4 317.427L273.915 294.838L282.795 281.88C283.949 280.196 285.418 278.941 287.056 278.24C288.693 277.538 290.442 277.415 292.126 277.882C293.811 278.35 295.374 279.391 296.657 280.903C297.941 282.415 298.901 284.344 299.441 286.497C300.241 289.688 300.069 293.164 298.961 296.191C297.852 299.218 295.894 301.56 293.5 302.722L279.457 309.535L259.254 331.697Z" fill="#FFB6B6"/>
<path d="M98.425 228.228V297.586H135.317V228.228C135.318 227.729 135.197 227.243 134.972 226.841C134.748 226.44 134.431 226.143 134.069 225.996C133.899 225.922 133.72 225.885 133.54 225.888H100.207C99.973 225.887 99.7415 225.947 99.5255 226.065C99.3095 226.182 99.1131 226.354 98.9476 226.571C98.7822 226.789 98.6508 227.047 98.5612 227.331C98.4715 227.615 98.4252 227.92 98.425 228.228ZM112.822 252.059C112.832 250.692 113.251 249.385 113.989 248.423C114.726 247.46 115.722 246.92 116.761 246.92C117.799 246.92 118.795 247.46 119.533 248.423C120.27 249.385 120.689 250.692 120.699 252.059V260.107C120.694 261.478 120.276 262.791 119.538 263.758C118.8 264.725 117.802 265.268 116.761 265.268C115.72 265.268 114.721 264.725 113.983 263.758C113.245 262.791 112.828 261.478 112.822 260.107V252.059Z" fill="#2F2E41"/>
<path d="M98.3121 295.368V302.056C98.3129 302.402 98.4174 302.735 98.6029 302.98C98.7884 303.226 99.04 303.365 99.303 303.368H134.439C134.702 303.366 134.954 303.227 135.14 302.981C135.326 302.736 135.43 302.403 135.43 302.056V295.368H98.3121Z" fill="#3F3D56"/>
<path d="M40.3887 123.731V250.369C40.3897 251.983 40.8769 253.53 41.7433 254.671C42.6097 255.812 43.7845 256.454 45.0098 256.455H187.495C188.72 256.454 189.895 255.812 190.761 254.671C191.628 253.53 192.115 251.983 192.116 250.369V123.731C192.113 122.118 191.625 120.573 190.759 119.434C189.893 118.294 188.719 117.653 187.495 117.651H45.0098C43.7856 117.653 42.6119 118.294 41.7457 119.434C40.8796 120.573 40.3916 122.118 40.3887 123.731Z" fill="#3F3D56"/>
<path d="M43.7313 125.306V248.807C43.7325 249.669 43.993 250.495 44.4559 251.105C44.9189 251.715 45.5464 252.058 46.2011 252.059H186.309C186.963 252.058 187.591 251.715 188.054 251.105C188.517 250.495 188.777 249.669 188.778 248.807V125.306C188.778 124.443 188.518 123.615 188.055 123.004C187.592 122.393 186.964 122.049 186.309 122.047H46.2011C45.5456 122.049 44.9175 122.393 44.4545 123.004C43.9915 123.615 43.7314 124.443 43.7313 125.306Z" fill="white"/>
<path d="M69.7329 302.915C69.8755 303.15 70.0568 303.34 70.2631 303.47C70.4694 303.6 70.6954 303.667 70.9241 303.665H154.279C154.507 303.665 154.732 303.598 154.938 303.468C155.144 303.339 155.325 303.151 155.468 302.918C155.612 302.685 155.714 302.412 155.768 302.12C155.822 301.829 155.825 301.525 155.778 301.231L154.484 293.136C154.431 292.806 154.315 292.499 154.149 292.242C153.982 291.986 153.769 291.789 153.529 291.668C153.356 291.579 153.171 291.533 152.985 291.533H72.2129C72.0267 291.533 71.842 291.579 71.6686 291.668C71.4292 291.789 71.2163 291.986 71.0495 292.242C70.8827 292.499 70.7672 292.806 70.7136 293.136L69.4197 301.231C69.3736 301.525 69.3779 301.828 69.4321 302.119C69.4862 302.411 69.589 302.682 69.7329 302.915Z" fill="#2F2E41"/>
<path d="M181.762 139.059H50.6636C50.5273 139.055 50.3977 138.981 50.3024 138.853C50.2071 138.725 50.1537 138.552 50.1537 138.373C50.1537 138.193 50.2071 138.021 50.3024 137.893C50.3977 137.764 50.5273 137.69 50.6636 137.686H181.762C181.898 137.69 182.028 137.764 182.123 137.893C182.218 138.021 182.272 138.193 182.272 138.373C182.272 138.552 182.218 138.725 182.123 138.853C182.028 138.981 181.898 139.055 181.762 139.059Z" fill="#3F3D56"/>
<path d="M59.5876 134.18C61.275 134.18 62.6429 132.338 62.6429 130.067C62.6429 127.795 61.275 125.953 59.5876 125.953C57.9002 125.953 56.5323 127.795 56.5323 130.067C56.5323 132.338 57.9002 134.18 59.5876 134.18Z" fill="#3F3D56"/>
<path d="M70.1423 134.18C71.8297 134.18 73.1976 132.338 73.1976 130.067C73.1976 127.795 71.8297 125.953 70.1423 125.953C68.4549 125.953 67.087 127.795 67.087 130.067C67.087 132.338 68.4549 134.18 70.1423 134.18Z" fill="#3F3D56"/>
<path d="M80.697 134.18C82.3844 134.18 83.7523 132.338 83.7523 130.067C83.7523 127.795 82.3844 125.953 80.697 125.953C79.0096 125.953 77.6417 127.795 77.6417 130.067C77.6417 132.338 79.0096 134.18 80.697 134.18Z" fill="#3F3D56"/>
<path d="M175.406 126.97H167.91C167.761 126.975 167.62 127.055 167.517 127.195C167.413 127.335 167.355 127.522 167.355 127.717C167.355 127.913 167.413 128.1 167.517 128.24C167.62 128.379 167.761 128.46 167.91 128.465H175.406C175.555 128.462 175.697 128.382 175.802 128.242C175.907 128.102 175.966 127.914 175.966 127.717C175.966 127.521 175.907 127.332 175.802 127.193C175.697 127.053 175.555 126.973 175.406 126.97Z" fill="#3F3D56"/>
<path d="M175.406 129.777H167.91C167.761 129.781 167.62 129.862 167.516 130.001C167.413 130.141 167.355 130.328 167.355 130.524C167.355 130.719 167.413 130.907 167.516 131.046C167.62 131.186 167.761 131.267 167.91 131.271H175.406C175.555 131.269 175.698 131.189 175.803 131.049C175.908 130.909 175.967 130.72 175.967 130.524C175.967 130.327 175.908 130.138 175.803 129.999C175.698 129.859 175.555 129.779 175.406 129.777Z" fill="#3F3D56"/>
<path d="M175.406 132.583H167.91C167.761 132.588 167.62 132.668 167.517 132.808C167.413 132.948 167.355 133.135 167.355 133.33C167.355 133.526 167.413 133.713 167.517 133.853C167.62 133.992 167.761 134.073 167.91 134.078H175.406C175.555 134.075 175.697 133.995 175.802 133.855C175.907 133.715 175.966 133.527 175.966 133.33C175.966 133.134 175.907 132.945 175.802 132.806C175.697 132.666 175.555 132.586 175.406 132.583Z" fill="#3F3D56"/>
<path d="M356.133 298.303C356.359 299.17 356.788 299.921 357.359 300.447C357.929 300.974 358.612 301.248 359.308 301.232L372.91 300.771C373.612 300.753 374.29 300.436 374.843 299.869C375.397 299.301 375.796 298.513 375.981 297.621L377.906 270.512C378.589 270.919 379.333 271.12 380.082 271.101C380.733 271.079 381.375 270.889 381.971 270.541C382.566 270.193 383.103 269.693 383.552 269.072C384.001 268.45 384.353 267.718 384.587 266.917C384.821 266.116 384.933 265.263 384.917 264.405C384.901 263.547 384.756 262.702 384.492 261.918C384.227 261.134 383.848 260.426 383.376 259.835C382.904 259.243 382.348 258.78 381.741 258.472C381.133 258.164 380.484 258.016 379.833 258.037C379.534 258.036 379.235 258.077 378.942 258.16C378.623 257.705 378.236 257.344 377.805 257.099C377.374 256.854 376.909 256.731 376.439 256.737L355.515 257.449C355.342 257.457 355.169 257.486 354.999 257.533C354.54 257.646 354.105 257.887 353.723 258.24C353.341 258.592 353.02 259.049 352.783 259.578C352.546 260.108 352.398 260.698 352.349 261.31C352.299 261.921 352.35 262.539 352.497 263.122L356.133 298.303ZM378.301 268.671L379.671 262.211C379.827 261.465 379.83 260.677 379.681 259.929C379.748 259.928 379.806 259.887 379.873 259.887C380.812 259.861 381.72 260.327 382.399 261.183C383.078 262.038 383.471 263.213 383.493 264.45C383.515 265.687 383.164 266.884 382.516 267.781C381.869 268.677 380.978 269.198 380.039 269.231C379.432 269.256 378.831 269.062 378.301 268.671Z" fill="#2F2E41"/>
<path d="M354.999 257.533C355.445 260.89 360.457 263.25 366.483 262.84C372.025 262.504 376.556 259.941 377.386 256.904C377.079 256.784 376.759 256.728 376.439 256.737L355.515 257.449C355.342 257.457 355.169 257.486 354.999 257.533Z" fill="#3F3D56"/>
<path d="M367.588 283.406C367.615 283.397 367.641 283.382 367.665 283.361L370.619 280.814C370.655 280.784 370.684 280.742 370.705 280.693C370.725 280.643 370.736 280.588 370.736 280.532C370.736 280.476 370.725 280.42 370.705 280.371C370.684 280.322 370.655 280.28 370.619 280.249L367.549 277.6C367.521 277.576 367.489 277.559 367.456 277.55C367.423 277.542 367.389 277.542 367.356 277.551C367.323 277.56 367.291 277.578 367.263 277.603C367.235 277.628 367.211 277.66 367.193 277.697C367.174 277.734 367.162 277.776 367.155 277.819C367.149 277.863 367.149 277.908 367.156 277.952C367.163 277.995 367.177 278.036 367.196 278.073C367.215 278.11 367.239 278.141 367.268 278.166L370.01 280.531L367.384 282.795C367.333 282.839 367.296 282.905 367.279 282.982C367.261 283.059 367.265 283.141 367.29 283.214C367.314 283.287 367.357 283.347 367.412 283.382C367.467 283.417 367.529 283.426 367.588 283.406H367.588Z" fill="#8CD6FF"/>
<path d="M362.922 283.689C362.972 283.673 363.016 283.637 363.05 283.587C363.085 283.537 363.106 283.474 363.113 283.408C363.12 283.341 363.112 283.273 363.089 283.212C363.067 283.152 363.031 283.102 362.987 283.068L360.264 281.012L362.896 278.437C362.923 278.411 362.946 278.378 362.963 278.34C362.98 278.302 362.992 278.259 362.996 278.216C363.001 278.172 363 278.127 362.991 278.084C362.983 278.041 362.969 278 362.949 277.965C362.928 277.929 362.903 277.899 362.874 277.876C362.845 277.854 362.813 277.838 362.78 277.832C362.747 277.826 362.713 277.828 362.68 277.839C362.647 277.849 362.617 277.869 362.59 277.895L359.643 280.778C359.609 280.811 359.582 280.855 359.563 280.906C359.545 280.957 359.537 281.013 359.54 281.069C359.542 281.125 359.555 281.179 359.578 281.227C359.6 281.275 359.631 281.314 359.668 281.342L362.731 283.655C362.789 283.699 362.857 283.711 362.922 283.689Z" fill="#8CD6FF"/>
<path d="M367.294 285.638C367.319 285.629 367.342 285.616 367.364 285.599C367.393 285.575 367.418 285.545 367.438 285.509C367.458 285.473 367.472 285.433 367.48 285.39C367.488 285.346 367.49 285.302 367.485 285.258C367.48 285.214 367.468 285.172 367.45 285.134L363.263 276.066C363.227 275.99 363.17 275.935 363.104 275.914C363.038 275.893 362.968 275.907 362.91 275.954C362.852 276 362.81 276.076 362.794 276.163C362.778 276.25 362.789 276.342 362.824 276.418L367.012 285.486C367.04 285.548 367.083 285.596 367.134 285.623C367.185 285.65 367.241 285.655 367.294 285.638Z" fill="#8CD6FF"/>
<path d="M131.877 176.389H109.186C108.261 176.389 107.51 177.378 107.51 178.597V181.516C107.51 182.736 108.261 183.724 109.186 183.724H131.877C132.802 183.724 133.553 182.736 133.553 181.516V178.597C133.553 177.378 132.802 176.389 131.877 176.389Z" fill="#8CD6FF"/>
<path d="M145.103 191.058H95.9605C95.0349 191.058 94.2845 192.047 94.2845 193.266V196.186C94.2845 197.405 95.0349 198.393 95.9605 198.393H145.103C146.028 198.393 146.779 197.405 146.779 196.186V193.266C146.779 192.047 146.028 191.058 145.103 191.058Z" fill="#E6E6E6"/>
<path d="M145.103 205.728H95.9605C95.0349 205.728 94.2845 206.716 94.2845 207.935V210.855C94.2845 212.074 95.0349 213.062 95.9605 213.062H145.103C146.028 213.062 146.779 212.074 146.779 210.855V207.935C146.779 206.716 146.028 205.728 145.103 205.728Z" fill="#E6E6E6"/>
<path d="M149.268 254.849L149.38 255.312L149.386 255.327L152.736 268.743L156.59 284.203L163.842 313.257L163.912 317.77V317.785L164.451 354.09L162.957 359.012L164.638 367.082C164.638 367.082 163.865 354.884 159.718 361.889C157.369 365.87 154.622 369.943 152.367 373.762C155.653 375.513 158.992 377.097 162.383 378.514C163.115 378.823 163.853 379.116 164.591 379.409C164.749 379.471 164.908 379.532 165.066 379.594C176.308 383.973 187.93 386.433 199.648 386.915C200.257 386.938 200.854 386.954 201.434 386.969C201.639 386.977 201.838 386.985 202.037 386.985C202.693 386.992 203.344 387 204 387C205.323 387 206.641 386.974 207.953 386.923C217.665 386.562 227.319 384.843 236.754 381.793C236.69 376.662 236.514 370.668 236.262 364.265C236.145 361.125 233.515 357.723 233.357 354.437C233.246 351.968 235.606 349.646 235.483 347.138C234.686 331.701 233.691 337.627 232.953 326.696C232.877 325.623 232.806 324.597 232.742 323.618C232.267 316.597 231.939 312.207 231.939 312.207L235.091 286.047L240.04 244.974L239.659 244.149L239.232 243.871L213.125 226.853L211.708 222.07C211.295 220.692 210.578 219.508 209.65 218.671C208.722 217.833 207.626 217.381 206.501 217.371L189.304 217.279C188.411 217.273 187.53 217.549 186.735 218.081C185.939 218.614 185.252 219.389 184.729 220.341L180.072 228.835L149.268 254.849Z" fill="#3F3D56"/>
<path d="M167.807 306.792L163.912 317.77L161.253 325.268L156.678 356.814L154.388 360.015L152.426 348.681L131.888 354.687C131.215 349.758 131.708 354.854 131.292 349.446C131.409 349.292 131.532 349.137 131.655 348.983C131.983 348.582 132.259 348.204 132.253 347.841C132.018 329.187 132.721 297.442 138.59 278.209C139.51 275.069 140.722 272.091 142.199 269.345C142.316 269.137 142.427 268.928 142.538 268.72C145.244 263.729 146.955 258.814 149.38 255.32V255.312C149.395 255.296 149.409 255.278 149.421 255.258C149.429 255.252 149.437 255.244 149.444 255.235L166.102 243.601L166.817 270.047L167.327 289.056L167.807 306.792Z" fill="#3F3D56"/>
<path d="M227.874 309.91L232.739 323.621L234.438 328.396L239.011 359.939L241.294 363.132L243.26 351.801L244.185 351.552L260.851 347.005L265.708 367.325C266.803 364.922 267.235 362.095 266.929 359.322C266.624 356.549 265.601 353.999 264.034 352.105C263.702 351.71 263.426 351.325 263.434 350.961C263.71 329.02 262.691 288.958 253.489 272.469C250.567 267.236 248.813 262.024 246.262 258.383C246.254 258.373 246.254 258.362 246.246 258.362L240.038 244.973L239.659 244.152L239.232 243.871L227.874 309.91Z" fill="#3F3D56"/>
<path d="M198.399 210.833C211.035 210.833 221.278 197.342 221.278 180.699C221.278 164.057 211.035 150.566 198.399 150.566C185.763 150.566 175.52 164.057 175.52 180.699C175.52 197.342 185.763 210.833 198.399 210.833Z" fill="#FFB6B6"/>
<path d="M229.322 159.651C229.145 159.402 228.931 159.202 228.694 159.064C228.457 158.925 228.201 158.852 227.941 158.847L228.285 157.589C228.397 157.193 228.428 156.764 228.373 156.347C228.318 155.931 228.18 155.541 227.973 155.217C227.767 154.894 227.498 154.649 227.196 154.507C226.893 154.365 226.567 154.332 226.252 154.41L224.999 154.728L225.117 153.626C225.162 153.215 225.126 152.796 225.011 152.41C224.896 152.024 224.707 151.684 224.462 151.423C224.216 151.162 223.924 150.99 223.613 150.923C223.302 150.857 222.984 150.898 222.688 151.042C222.42 151.182 222.131 151.24 221.843 151.213C221.555 151.186 221.276 151.075 221.025 150.887C220.773 150.705 220.554 150.453 220.384 150.148C220.214 149.843 220.096 149.493 220.039 149.122L219.603 146.349L219.556 146.2C217.431 141.534 213.344 138.139 208.342 136.895C203.891 135.779 199.326 136.347 194.926 136.881C193.18 137.098 191.208 137.341 189.565 138.667C188.169 139.803 186.988 142.075 187.229 144.368C182.89 142.616 178.238 146.112 175.933 150.522C173.201 155.77 172.755 162.343 172.683 167.483C172.488 179.642 174.392 189.59 178.331 197.056C178.618 197.597 178.69 198.726 179.26 199.105L179.142 198.855C179.779 199.274 180.426 199.95 180.184 200.674C179.491 202.757 184.097 207.362 187.342 208.884C193.262 211.663 201.133 211.426 206.669 210.426L206.864 208.701C208.861 208.343 210.268 207.66 210.663 206.591C211.362 205.807 211.957 205.103 212.476 204.454L212.481 204.447C212.491 204.434 212.512 204.414 212.522 204.4C215.023 201.242 215.603 199.443 215.865 196.704C216.116 194.019 215.669 191.294 215.213 188.839C224.835 190.8 211.423 175.341 220.388 172.352C220.491 172.31 220.596 172.276 220.701 172.25C220.963 172.169 221.225 172.088 221.477 171.993C222.689 171.56 223.851 170.906 224.927 170.052C227.433 168.044 228.26 165.379 229.553 162.377C229.74 161.949 229.818 161.454 229.777 160.964C229.735 160.474 229.576 160.014 229.322 159.651Z" fill="#2F2E41"/>
<path d="M279.318 312.055C279.313 313.239 279.302 314.896 279.261 316.945C279.256 317.229 279.251 317.519 279.246 317.817C279.179 321.584 279.112 324.742 279.005 328.252C279 328.495 278.994 328.732 278.984 328.975C278.84 333.872 278.614 339.573 278.224 348.601C277.5 365.278 276.237 350.893 274.969 356.743C274.907 357.034 274.84 357.379 274.779 357.785C274.587 359.257 274.263 360.694 273.814 362.065C273.141 362.593 272.448 363.1 271.765 363.607C269.819 365.034 267.842 366.407 265.85 367.712C264.73 368.443 263.606 369.159 262.476 369.849C262.297 369.957 262.122 370.066 261.948 370.167C256.163 373.691 250.201 376.687 244.105 379.134C242.914 379.608 241.728 380.068 240.526 380.494C239.273 380.953 238.02 381.386 236.752 381.792C227.317 384.843 217.663 386.563 207.952 386.925C206.643 386.979 205.323 386.999 203.999 386.999C203.341 386.999 202.694 386.993 202.037 386.986C201.837 386.986 201.637 386.979 201.436 386.972C200.856 386.952 200.255 386.938 199.65 386.918C187.932 386.437 176.31 383.975 165.068 379.594L164.591 379.412C163.851 379.114 163.117 378.823 162.383 378.512C158.994 377.099 155.655 375.516 152.365 373.765C149.854 372.433 147.373 371.003 144.92 369.477C144.898 369.469 144.877 369.455 144.858 369.437C144.345 369.126 143.826 368.801 143.313 368.47C143.246 368.422 143.174 368.375 143.102 368.328C141.187 367.097 139.292 365.807 137.418 364.459C135.842 359.692 133.624 358.779 132.248 354.586C131.847 353.34 131.558 352.037 131.385 350.704C131.385 350.69 131.38 350.677 131.38 350.657C131.524 353.172 130.769 346.193 131.375 350.63C131.37 350.548 131.365 350.461 131.359 350.359C131.344 350.116 131.324 349.818 131.293 349.446C129.532 326.798 129.645 300.897 128.879 279.554C128.828 278.174 128.775 276.853 128.72 275.591C128.705 275.172 128.684 274.759 128.664 274.353C128.7 274.232 128.741 274.103 128.787 273.981C128.797 273.946 128.809 273.912 128.823 273.88C128.838 273.838 128.855 273.797 128.874 273.758C128.885 273.738 128.9 273.711 128.91 273.69C128.918 273.667 128.926 273.645 128.936 273.623C128.982 273.528 129.033 273.427 129.09 273.332C129.116 273.292 129.136 273.258 129.162 273.224C129.18 273.189 129.2 273.158 129.223 273.129C129.239 273.097 129.258 273.067 129.28 273.041C129.3 273.014 129.321 272.98 129.347 272.947C129.358 272.925 129.372 272.907 129.388 272.893C129.428 272.831 129.473 272.775 129.521 272.723C129.704 272.501 129.9 272.298 130.107 272.115C130.178 272.054 130.256 271.993 130.327 271.925C130.845 271.518 131.39 271.174 131.955 270.898C132.15 270.803 132.345 270.715 132.556 270.62C132.633 270.593 132.705 270.559 132.782 270.526C132.895 270.478 133.008 270.431 133.126 270.397C133.711 270.167 134.343 269.971 135.026 269.788C135.108 269.768 135.195 269.748 135.282 269.721C135.406 269.687 135.534 269.66 135.662 269.633C135.837 269.592 136.017 269.552 136.196 269.511C137.721 269.193 139.452 268.957 141.362 268.801C141.541 268.788 141.721 268.774 141.901 268.761C142.111 268.747 142.322 268.734 142.537 268.72C142.717 268.706 142.902 268.7 143.087 268.693C143.267 268.679 143.451 268.673 143.641 268.666C144.16 268.646 144.694 268.625 145.238 268.612C146.789 268.571 148.422 268.585 150.137 268.632C150.933 268.659 151.744 268.686 152.576 268.733C152.632 268.733 152.683 268.74 152.735 268.74C153.459 268.774 154.188 268.815 154.938 268.869C155.461 268.903 155.99 268.936 156.519 268.977C157.017 269.018 157.52 269.058 158.029 269.105C158.424 269.133 158.819 269.173 159.22 269.207C159.559 269.241 159.898 269.275 160.236 269.302L160.698 269.342C160.95 269.369 161.202 269.389 161.458 269.423C162.023 269.484 162.588 269.545 163.163 269.606C163.733 269.674 164.313 269.741 164.893 269.809C165.474 269.876 166.059 269.951 166.644 270.025C166.706 270.032 166.762 270.039 166.819 270.045C167.353 270.12 167.887 270.187 168.426 270.262C168.549 270.275 168.678 270.289 168.801 270.309C169.315 270.377 169.839 270.457 170.358 270.529C170.517 270.552 170.675 270.574 170.835 270.597C171.241 270.655 171.642 270.706 172.051 270.769C172.59 270.85 173.14 270.925 173.674 271.019C174.089 271.08 174.505 271.141 174.921 271.209C175.573 271.31 176.236 271.418 176.898 271.533C177.15 271.574 177.401 271.614 177.653 271.662C179.542 271.973 181.452 272.318 183.393 272.676C186.335 273.224 189.324 273.819 192.333 274.461C195.347 275.104 198.378 275.782 201.426 276.497C202.196 276.68 202.966 276.862 203.742 277.052C204.091 277.139 204.44 277.227 204.789 277.315C205.385 277.457 205.98 277.606 206.576 277.755C207.172 277.904 207.767 278.052 208.363 278.208C209.071 278.391 209.785 278.573 210.494 278.756C215.161 279.973 219.803 281.271 224.331 282.631C225.076 282.854 225.821 283.084 226.56 283.307C228.039 283.76 229.504 284.22 230.955 284.687C231.356 284.808 231.751 284.937 232.146 285.065C233.132 285.39 234.118 285.715 235.088 286.046L235.258 286.107C235.972 286.337 236.67 286.573 237.368 286.817C239.016 287.385 240.637 287.96 242.231 288.541C243.288 288.927 244.334 289.317 245.368 289.711C246.913 290.3 248.428 290.895 249.902 291.497C250.266 291.645 250.631 291.794 250.99 291.936C252.069 292.376 253.131 292.822 254.163 293.268C254.985 293.62 255.786 293.979 256.577 294.337C257.367 294.695 258.143 295.054 258.903 295.412C259.39 295.642 259.873 295.886 260.356 296.116C261.049 296.454 261.732 296.792 262.399 297.13C262.605 297.231 262.805 297.34 263.005 297.441C263.134 297.515 263.257 297.576 263.38 297.644C263.621 297.772 263.868 297.894 264.104 298.023C264.345 298.144 264.582 298.273 264.818 298.408C265.049 298.53 265.285 298.658 265.511 298.787C265.742 298.909 265.968 299.037 266.194 299.172C266.384 299.274 266.569 299.382 266.748 299.49C267.113 299.7 267.477 299.909 267.832 300.126C268.006 300.234 268.181 300.335 268.355 300.444L268.756 300.687C268.812 300.728 268.869 300.762 268.925 300.795C269.054 300.877 269.187 300.964 269.316 301.046C269.613 301.228 269.906 301.424 270.194 301.607C270.579 301.864 270.954 302.121 271.313 302.371C271.678 302.628 272.032 302.885 272.371 303.135C272.427 303.176 272.479 303.216 272.535 303.257C272.612 303.311 272.689 303.372 272.766 303.426C273.028 303.622 273.28 303.825 273.531 304.021C274.024 304.42 274.491 304.812 274.928 305.205C275.025 305.293 275.118 305.38 275.215 305.462C275.539 305.766 275.847 306.063 276.134 306.368C276.134 306.375 276.134 306.375 276.14 306.375C276.237 306.469 276.329 306.571 276.422 306.665C276.499 306.76 276.581 306.841 276.658 306.936C276.925 307.24 277.172 307.531 277.397 307.828C277.473 307.92 277.545 308.017 277.613 308.119C277.643 308.152 277.671 308.188 277.695 308.228C277.798 308.363 277.89 308.498 277.978 308.633C277.991 308.652 278.003 308.672 278.014 308.694C278.137 308.883 278.25 309.073 278.358 309.262C278.409 309.357 278.465 309.452 278.512 309.546C278.573 309.661 278.635 309.783 278.686 309.898C278.732 309.993 278.774 310.094 278.815 310.189C278.924 310.432 279.016 310.688 279.092 310.953C279.15 311.132 279.196 311.318 279.231 311.507C279.269 311.687 279.299 311.87 279.318 312.055Z" fill="#2F2E41"/>
<path opacity="0.2" d="M279.318 312.055C279.313 313.239 279.302 314.896 279.261 316.945C279.256 317.229 279.246 317.519 279.241 317.817C279.189 320.691 279.112 324.242 279.005 328.252C279 328.495 278.994 328.732 278.984 328.975C278.84 333.872 278.614 339.573 278.224 348.601C277.5 365.278 276.237 350.893 274.969 356.743C271.447 353.889 267.585 350.9 263.457 347.83C262.713 347.275 261.961 346.719 261.203 346.16C252.947 340.093 243.725 333.736 234.098 327.44C233.718 327.19 233.332 326.94 232.953 326.696C210.899 312.339 186.828 298.374 167.327 289.055C163.564 287.256 159.969 285.633 156.591 284.206C149.474 281.211 143.323 279.114 138.589 278.208C133.66 277.261 130.256 277.599 128.879 279.554C128.828 278.174 128.775 276.853 128.72 275.591C128.7 275.172 128.679 274.759 128.659 274.353C128.69 274.242 128.732 274.136 128.771 274.029C128.777 274.013 128.781 273.997 128.787 273.981C128.797 273.946 128.809 273.912 128.823 273.88C128.838 273.838 128.855 273.797 128.874 273.758C128.891 273.71 128.912 273.665 128.936 273.623C128.982 273.528 129.033 273.427 129.09 273.332C129.131 273.261 129.176 273.193 129.223 273.129C129.239 273.097 129.258 273.067 129.28 273.041C129.3 273.014 129.321 272.98 129.347 272.947C129.358 272.925 129.372 272.907 129.388 272.893C129.428 272.831 129.473 272.775 129.521 272.723C129.704 272.501 129.9 272.298 130.107 272.115C130.178 272.054 130.256 271.993 130.327 271.925C130.845 271.518 131.39 271.174 131.955 270.898C132.15 270.803 132.345 270.715 132.556 270.62C132.633 270.593 132.705 270.559 132.782 270.526C132.895 270.478 133.008 270.431 133.126 270.397C133.711 270.167 134.343 269.971 135.026 269.788C135.231 269.734 135.447 269.68 135.662 269.633C135.837 269.592 136.017 269.552 136.196 269.511C137.721 269.193 139.452 268.957 141.362 268.801C141.541 268.788 141.721 268.774 141.901 268.761C142.111 268.747 142.322 268.733 142.537 268.72C142.717 268.706 142.902 268.7 143.087 268.693C143.267 268.679 143.451 268.673 143.641 268.666C144.16 268.646 144.694 268.625 145.238 268.612C146.789 268.578 148.422 268.591 150.137 268.639C150.933 268.659 151.744 268.693 152.576 268.74C152.627 268.74 152.683 268.747 152.735 268.747C153.459 268.774 154.193 268.821 154.938 268.869C155.461 268.903 155.99 268.936 156.519 268.977C157.017 269.017 157.52 269.058 158.029 269.105C158.424 269.132 158.819 269.173 159.22 269.207C159.559 269.241 159.897 269.274 160.236 269.302C160.642 269.342 161.048 269.383 161.458 269.423C162.023 269.484 162.588 269.545 163.163 269.606C163.733 269.673 164.313 269.741 164.893 269.809C165.474 269.876 166.059 269.951 166.644 270.025C166.706 270.032 166.762 270.039 166.819 270.045C167.353 270.12 167.887 270.187 168.426 270.262C171.414 270.661 174.49 271.127 177.653 271.662C179.542 271.98 181.456 272.32 183.393 272.683C186.335 273.231 189.324 273.826 192.333 274.461C195.347 275.104 198.378 275.782 201.426 276.497C202.196 276.68 202.966 276.862 203.742 277.052C204.687 277.281 205.631 277.516 206.576 277.755C207.172 277.904 207.767 278.052 208.363 278.208C209.071 278.391 209.785 278.573 210.494 278.756C215.161 279.973 219.803 281.271 224.332 282.631C225.076 282.854 225.821 283.084 226.56 283.307C228.039 283.76 229.504 284.22 230.955 284.687C231.356 284.815 231.751 284.944 232.146 285.072C233.137 285.397 234.118 285.721 235.088 286.046V286.053C235.145 286.066 235.201 286.087 235.258 286.107C235.966 286.344 236.67 286.58 237.368 286.824C239.016 287.392 240.637 287.964 242.231 288.541C243.288 288.934 244.336 289.319 245.368 289.711C246.913 290.306 248.428 290.902 249.902 291.497C250.266 291.645 250.631 291.794 250.99 291.936C252.069 292.383 253.126 292.827 254.163 293.268C254.985 293.62 255.786 293.979 256.577 294.337C257.367 294.695 258.143 295.054 258.903 295.412C259.396 295.642 259.878 295.879 260.356 296.109C261.054 296.447 261.732 296.785 262.399 297.13C262.605 297.231 262.805 297.34 263.005 297.441C263.38 297.63 263.745 297.827 264.104 298.023C264.345 298.144 264.582 298.273 264.818 298.408C265.049 298.53 265.285 298.658 265.511 298.787C265.742 298.909 265.968 299.037 266.194 299.172C266.384 299.274 266.569 299.382 266.748 299.49C267.113 299.7 267.477 299.909 267.832 300.126C268.006 300.234 268.181 300.336 268.355 300.444L268.756 300.687C268.812 300.728 268.869 300.762 268.925 300.795C269.362 301.066 269.783 301.336 270.194 301.607C270.579 301.864 270.954 302.121 271.313 302.371C271.739 302.669 272.145 302.959 272.535 303.257C272.612 303.311 272.689 303.372 272.766 303.426C273.028 303.622 273.28 303.825 273.531 304.021C274.024 304.42 274.491 304.812 274.928 305.205C275.359 305.597 275.76 305.982 276.134 306.368C276.134 306.375 276.134 306.375 276.14 306.375C276.319 306.564 276.494 306.753 276.658 306.936C276.925 307.24 277.172 307.531 277.398 307.829C277.473 307.92 277.545 308.017 277.613 308.119C277.643 308.152 277.671 308.188 277.695 308.228C277.803 308.383 277.911 308.539 278.014 308.694C278.137 308.884 278.25 309.073 278.358 309.262C278.409 309.357 278.466 309.452 278.512 309.546C278.573 309.661 278.635 309.783 278.686 309.898C278.733 309.993 278.774 310.094 278.815 310.189C278.924 310.432 279.016 310.688 279.092 310.953C279.148 311.133 279.194 311.318 279.231 311.507C279.269 311.687 279.299 311.87 279.318 312.055Z" fill="black"/>
</g>
<defs>
<clipPath id="clip0_14_312">
<rect width="404" height="387" fill="white"/>
</clipPath>
</defs>
</svg>
