<svg width="599" height="300" viewBox="0 0 599 300" fill="none" xmlns="http://www.w3.org/2000/svg">
<g clip-path="url(#clip0_21_729)">
<path d="M197.082 300C179.024 300 160.993 299.677 142.989 299.03C117.264 298.106 90.663 297.151 65.9382 283.438C48.6421 273.846 33.3237 258.457 21.6396 238.932C13.8301 225.699 8.10383 211.342 4.66194 196.367C-1.75852 169.102 -1.53984 140.694 5.29961 113.531C7.69642 104.218 11.0006 95.1625 15.1647 86.4943C33.1955 49.1561 66.0823 24.092 105.393 17.7291C105.718 17.687 106.046 17.68 106.372 17.7082C106.549 17.7177 106.725 17.7278 106.905 17.7203L107.136 17.6468C107.729 17.4407 108.338 17.2844 108.957 17.1795C169.584 8.15386 233.676 26.416 294.299 69.9902C341.173 103.686 403.294 121.831 484.212 125.461L485.36 125.521C507.886 126.815 529.675 136.102 548.375 152.379C566.831 168.444 580.689 189.878 588.45 214.365C589.404 217.351 590.279 220.458 591.05 223.601C591.767 226.522 591.716 229.579 590.902 232.474C590.088 235.37 588.539 238.005 586.405 240.124V240.13L586.203 240.337C585.718 240.82 585.208 241.282 584.686 241.713L584.072 242.219C578.901 246.479 574.817 249.844 569.928 252.457C566.668 254.188 563.201 255.498 559.61 256.353C539.891 261.16 519.866 265.617 500.092 269.601C461.689 277.345 422.274 283.732 382.942 288.586C321.28 296.189 259.21 300.001 197.082 300V300ZM105.912 19.0307C105.792 19.0295 105.671 19.0377 105.551 19.0552C66.6082 25.3585 34.0327 50.1766 16.1807 87.1452C12.0577 95.7274 8.78619 104.693 6.41322 113.914C-0.363907 140.836 -0.579876 168.992 5.78348 196.015C9.19168 210.847 14.8624 225.066 22.5965 238.173C34.1663 257.506 49.328 272.741 66.4427 282.232C90.9456 295.822 117.421 296.773 143.026 297.692C223.107 300.553 303.288 297.063 382.818 287.255C422.124 282.404 461.514 276.021 499.892 268.283C519.653 264.302 539.663 259.848 559.369 255.043C562.873 254.209 566.257 252.932 569.439 251.243C574.229 248.682 578.274 245.349 583.395 241.13L584.009 240.625C584.458 240.254 584.898 239.858 585.32 239.447L585.44 239.32C589.649 235.078 591.286 229.481 589.931 223.965V223.964C589.168 220.855 588.303 217.781 587.359 214.826C571.505 164.804 530.492 129.454 485.305 126.859L484.162 126.798C447.2 125.14 414.855 120.545 385.284 112.751C349.982 103.448 319.164 89.4424 293.684 71.1254C233.292 27.7181 169.468 9.52399 109.105 18.5068C108.541 18.6041 107.986 18.748 107.446 18.9369L107.029 19.0535C106.792 19.0641 106.555 19.0613 106.319 19.045C106.179 19.0379 106.044 19.0307 105.912 19.0307H105.912Z" fill="#F0F0F0"/>
<path d="M186.931 97.7436C185.26 96.1398 183.55 87.1956 181.416 86.2876C183.011 89.8135 181.853 90.747 181.844 94.6166C181.864 96.8138 181.608 99.0048 181.08 101.138H144.926V72.9223C144.926 70.3871 145.425 67.8767 146.396 65.5344C147.366 63.1921 148.788 61.0639 150.58 59.2712C152.373 57.4785 154.501 56.0565 156.844 55.0863C159.186 54.1162 161.696 53.6169 164.232 53.6169C165.199 53.6358 166.161 53.7766 167.093 54.0359C170.201 54.8749 173.033 56.5163 175.306 58.7955C177.579 61.0746 179.212 63.9115 180.043 67.0213C182.799 77.0955 187.183 93.8648 186.931 97.7436Z" fill="#2F2E41"/>
<path d="M147.048 132.454L147.065 110.462L134.138 111.617L138.7 125.488L136.565 160.352C135.529 160.584 134.584 161.113 133.843 161.873C133.103 162.634 132.6 163.593 132.395 164.635C132.191 165.676 132.294 166.755 132.692 167.739C133.09 168.723 133.766 169.57 134.636 170.176C135.507 170.783 136.536 171.123 137.597 171.155C138.658 171.187 139.705 170.91 140.611 170.357C141.517 169.804 142.243 169 142.7 168.042C143.156 167.084 143.324 166.014 143.183 164.962L147.048 132.454Z" fill="#FFB6B6"/>
<path d="M172.489 289.612L177.712 289.612L180.197 269.467H172.488L172.489 289.612Z" fill="#FFB6B6"/>
<path d="M170.72 287.036L178.976 286.543V290.08L186.826 295.501C187.214 295.769 187.506 296.154 187.659 296.599C187.813 297.044 187.82 297.527 187.68 297.977C187.54 298.427 187.259 298.82 186.88 299.099C186.5 299.378 186.041 299.529 185.57 299.529H175.741L174.047 296.03L173.385 299.529H169.679L170.72 287.036Z" fill="#2F2E41"/>
<path d="M142.29 289.612L147.513 289.612L149.997 269.467H142.289L142.29 289.612Z" fill="#FFB6B6"/>
<path d="M140.521 287.036L148.778 286.543V290.08L156.627 295.501C157.015 295.769 157.307 296.154 157.46 296.599C157.614 297.044 157.621 297.527 157.481 297.977C157.341 298.427 157.06 298.82 156.681 299.099C156.301 299.378 155.843 299.529 155.371 299.529H145.542L143.848 296.03L143.186 299.529H139.48L140.521 287.036Z" fill="#2F2E41"/>
<path d="M167.838 86.7119L157.019 86.9241L149.381 94.9857L143.258 95.8837C140.489 96.2899 137.942 97.6345 136.045 99.6927C134.147 101.751 133.014 104.398 132.834 107.192L133.895 113.018H140.259L143.941 134.636C142.509 138.284 142.412 141.163 145.35 142.294L154.473 159.478L181.416 147.386C182.782 145.037 183.22 142.678 181.823 140.383L183.749 107.29H190.225C190.225 101.101 188.132 95.8829 181.981 95.1941C179.538 94.9298 177.084 94.7894 174.627 94.7735L167.838 86.7119Z" fill="#E6E6E6"/>
<path d="M181.416 147.386C181.416 147.386 155.109 152.053 145.35 142.295C145.35 142.295 144.36 143.977 142.867 146.766C142.437 147.568 141.608 148.112 141.108 149.083C140.652 149.966 139.482 151.052 138.986 152.054C138.587 152.859 139.227 153.912 138.812 154.783C133.814 165.265 127.976 180.052 129.227 189.816C130.035 196.112 131.702 210.763 133.458 226.5C133.595 227.729 132.484 229.309 132.622 230.548C132.752 231.716 134.131 232.545 134.261 233.716C134.347 234.494 133.384 235.287 133.47 236.064C133.565 236.916 134.708 237.751 134.802 238.6C137.208 260.329 139.41 280.615 139.41 280.615H151.715L154.037 234.283L152.139 217.395L156.594 183.239L162.747 215.698L163.538 233.965L170.04 281.463H181.416V235.482L182.264 233.094L181.416 230.03L182.264 226.729L181.416 223.134V147.386Z" fill="#2F2E41"/>
<path d="M171.159 80.4376C169.483 82.664 167.099 84.2532 164.399 84.9435C161.699 85.6338 158.845 85.384 156.306 84.2354C153.767 83.0867 151.695 81.1076 150.431 78.6241C149.167 76.1405 148.786 73.3005 149.352 70.5718C149.918 67.8432 151.396 65.3885 153.543 63.6121C155.69 61.8358 158.378 60.8436 161.165 60.799C163.951 60.7544 166.669 61.6601 168.872 63.3668C171.075 65.0736 172.631 67.4797 173.284 70.1889C173.319 70.3359 173.349 70.482 173.378 70.6338C173.723 72.3319 173.703 74.0838 173.321 75.7738C172.938 77.4638 172.201 79.0534 171.159 80.4376V80.4376Z" fill="#FFB6B6"/>
<path d="M168.602 73.4399C168.342 72.1342 167.684 70.941 166.718 70.0244C166.813 71.2757 166.64 72.5329 166.209 73.7115C162.983 73.9972 159.743 73.3553 156.87 71.8616C154.706 70.3936 151.953 70.5208 148.745 71.8616C148.745 70.3014 149.052 68.7565 149.649 67.315C150.246 65.8735 151.121 64.5638 152.224 63.4605C153.327 62.3573 154.637 61.4822 156.079 60.8853C157.52 60.2883 159.065 59.9811 160.625 59.9813H162.747C165.897 59.9819 168.919 61.2338 171.147 63.4616C173.374 65.6895 174.626 68.7109 174.627 71.8616C172.669 72.5639 170.653 73.092 168.602 73.4399V73.4399Z" fill="#2F2E41"/>
<path d="M75.7887 224.858C94.6383 224.858 109.919 209.578 109.919 190.728C109.919 171.878 94.6383 156.598 75.7887 156.598C56.939 156.598 41.6584 171.878 41.6584 190.728C41.6584 209.578 56.939 224.858 75.7887 224.858Z" fill="#F0F0F0"/>
<path d="M293.286 68.2606C312.135 68.2606 327.416 52.9799 327.416 34.1303C327.416 15.2807 312.135 0 293.286 0C274.436 0 259.155 15.2807 259.155 34.1303C259.155 52.9799 274.436 68.2606 293.286 68.2606Z" fill="#F0F0F0"/>
<path d="M564.32 230.212C583.17 230.212 598.451 214.931 598.451 196.082C598.451 177.232 583.17 161.952 564.32 161.952C545.471 161.952 530.19 177.232 530.19 196.082C530.19 214.931 545.471 230.212 564.32 230.212Z" fill="#F0F0F0"/>
<path d="M354.854 37.8523V115.245C354.854 116.853 354.22 118.395 353.089 119.538C351.959 120.681 350.423 121.331 348.815 121.348C348.793 121.35 348.771 121.351 348.748 121.351H339.741C332.534 121.351 325.622 118.488 320.525 113.391C315.429 108.295 312.566 101.383 312.566 94.176V37.8523C312.566 36.233 313.209 34.6801 314.354 33.535C315.499 32.39 317.052 31.7468 318.672 31.7468H322.321C320.631 36.6794 343.58 38.756 344.839 31.7468H348.748C350.368 31.7468 351.921 32.39 353.066 33.5351C354.211 34.6801 354.854 36.2331 354.854 37.8523V37.8523Z" fill="#8CD6FF"/>
<path d="M328.123 25.9596C328.124 25.7474 328.208 25.5441 328.358 25.3941C328.508 25.2441 328.711 25.1597 328.923 25.1594H334.365C334.576 25.16 334.779 25.2446 334.929 25.3946C335.078 25.5446 335.162 25.7478 335.162 25.9596C335.162 26.1714 335.078 26.3746 334.929 26.5246C334.779 26.6746 334.576 26.7591 334.365 26.7597H328.923C328.711 26.7595 328.508 26.6751 328.358 26.5251C328.208 26.3751 328.124 26.1717 328.123 25.9596V25.9596Z" fill="#3F3D56"/>
<path d="M350.618 131.167H316.209C313.539 131.164 310.98 130.103 309.092 128.215C307.205 126.327 306.143 123.768 306.14 121.098V66.9976C305.951 66.8619 305.797 66.6831 305.691 66.4761C305.585 66.2691 305.53 66.0398 305.53 65.8072V60.3662C305.53 60.1336 305.585 59.9043 305.691 59.6974C305.797 59.4904 305.951 59.3117 306.14 59.1761V57.7158C305.951 57.5801 305.797 57.4014 305.691 57.1945C305.585 56.9875 305.53 56.7582 305.53 56.5257V51.0843C305.53 50.8518 305.585 50.6225 305.691 50.4155C305.797 50.2085 305.951 50.0298 306.14 49.8942V47.2549C305.906 47.1296 305.712 46.9433 305.576 46.7158C305.44 46.4884 305.369 46.2283 305.37 45.9635V40.5225C305.369 40.2577 305.44 39.9976 305.576 39.7701C305.712 39.5426 305.906 39.3561 306.14 39.2308V31.9987C306.143 29.3292 307.205 26.7698 309.092 24.8822C310.98 22.9945 313.539 21.9327 316.209 21.9297H350.618C353.287 21.9328 355.847 22.9946 357.734 24.8822C359.622 26.7699 360.684 29.3292 360.687 31.9988V47.763C360.868 47.8765 361.018 48.0341 361.121 48.2212C361.225 48.4083 361.279 48.6186 361.28 48.8325V59.2074C361.279 59.4214 361.225 59.6318 361.121 59.8189C361.018 60.006 360.868 60.1638 360.687 60.2773V121.098C360.684 123.768 359.622 126.327 357.734 128.215C355.847 130.103 353.287 131.164 350.618 131.167V131.167ZM316.209 23.2682C313.894 23.2708 311.675 24.1914 310.038 25.8282C308.402 27.4649 307.481 29.6841 307.478 31.9988V40.3693L306.834 40.3941C306.801 40.3953 306.769 40.4093 306.746 40.4332C306.722 40.4571 306.709 40.4891 306.708 40.5225V45.9635C306.709 45.9969 306.722 46.0289 306.746 46.0527C306.769 46.0766 306.801 46.0906 306.834 46.0919L307.478 46.1164V50.834L306.969 50.9595C306.941 50.9662 306.916 50.9822 306.897 51.0048C306.879 51.0273 306.869 51.0553 306.868 51.0843V56.5256C306.869 56.5546 306.879 56.5826 306.897 56.6052C306.916 56.6277 306.941 56.6437 306.969 56.6505L307.478 56.7759V60.1158L306.969 60.2413C306.941 60.2481 306.916 60.264 306.897 60.2866C306.879 60.3092 306.869 60.3372 306.868 60.3661V65.8072C306.869 65.8362 306.879 65.8642 306.897 65.8869C306.916 65.9095 306.941 65.9255 306.969 65.9323L307.478 66.0578V121.098C307.481 123.413 308.402 125.632 310.038 127.269C311.675 128.906 313.894 129.826 316.209 129.829H350.618C352.932 129.826 355.152 128.906 356.788 127.269C358.425 125.632 359.346 123.413 359.348 121.098V59.1313H359.941V48.909H359.348V31.9987C359.346 29.6841 358.425 27.4649 356.788 25.8282C355.152 24.1915 352.932 23.2708 350.618 23.2682L316.209 23.2682Z" fill="#3F3D56"/>
<path d="M337.405 26.7597C337.847 26.7597 338.205 26.4015 338.205 25.9596C338.205 25.5177 337.847 25.1594 337.405 25.1594C336.963 25.1594 336.605 25.5177 336.605 25.9596C336.605 26.4015 336.963 26.7597 337.405 26.7597Z" fill="#3F3D56"/>
<path d="M163.344 180.959H73.8104C72.539 180.956 71.3205 180.45 70.4214 179.551C69.5223 178.652 69.0156 177.433 69.0122 176.162V132.536C69.0154 131.264 69.5219 130.046 70.4209 129.147C71.3199 128.248 72.5383 127.741 73.8098 127.738H163.343C164.614 127.741 165.833 128.247 166.732 129.146C167.631 130.045 168.138 131.264 168.141 132.535V176.161C168.138 177.433 167.631 178.651 166.732 179.55C165.833 180.449 164.615 180.956 163.344 180.959Z" fill="white"/>
<path d="M163.344 180.959H73.8104C72.539 180.956 71.3205 180.45 70.4214 179.551C69.5223 178.652 69.0156 177.433 69.0122 176.162V132.536C69.0154 131.264 69.5219 130.046 70.4209 129.147C71.3199 128.248 72.5383 127.741 73.8098 127.738H163.343C164.614 127.741 165.833 128.247 166.732 129.146C167.631 130.045 168.138 131.264 168.141 132.535V176.161C168.138 177.433 167.631 178.651 166.732 179.55C165.833 180.449 164.615 180.956 163.344 180.959ZM73.8104 129.076C72.8936 129.079 72.015 129.444 71.3667 130.093C70.7185 130.741 70.3532 131.62 70.3506 132.537V176.161C70.3533 177.078 70.7187 177.957 71.3671 178.605C72.0155 179.253 72.8942 179.618 73.8111 179.621H163.342C164.259 179.618 165.138 179.253 165.786 178.605C166.435 177.956 166.8 177.077 166.803 176.16V132.536C166.8 131.619 166.435 130.74 165.786 130.092C165.138 129.444 164.259 129.079 163.342 129.076L73.8104 129.076Z" fill="#3F3D56"/>
<path d="M123.376 174.512C105.718 174.512 87.3053 174.343 80.4355 174.234C79.5316 174.215 78.6708 173.844 78.037 173.2C77.4031 172.555 77.0463 171.688 77.0428 170.784V134.672C77.0432 134.348 77.1717 134.038 77.4003 133.808C77.629 133.579 77.9391 133.45 78.2628 133.449H158.888C159.211 133.449 159.522 133.578 159.751 133.806C159.98 134.035 160.109 134.345 160.111 134.669V159.17C160.095 163.17 158.513 167.004 155.704 169.85C152.894 172.697 149.081 174.329 145.082 174.396C138.679 174.48 131.098 174.512 123.376 174.512Z" fill="#8CD6FF"/>
<path d="M154.102 156.919H81.251C80.6409 156.917 80.0462 156.728 79.5477 156.376C79.0491 156.025 78.6708 155.528 78.4643 154.954L70.2186 131.822C70.0597 131.376 70.0102 130.898 70.0742 130.429C70.1382 129.959 70.3139 129.512 70.5865 129.125C70.8591 128.738 71.2207 128.422 71.6408 128.203C72.061 127.984 72.5274 127.87 73.001 127.869L164.063 127.742C164.496 127.742 164.924 127.836 165.316 128.019C165.709 128.202 166.056 128.468 166.335 128.8C166.613 129.132 166.815 129.52 166.926 129.939C167.038 130.357 167.057 130.794 166.981 131.221L167.051 131.25L166.79 131.86L166.787 131.867L156.819 155.126C156.592 155.658 156.213 156.112 155.73 156.431C155.247 156.75 154.681 156.92 154.102 156.919V156.919ZM164.068 129.081L73.0036 129.207C72.7442 129.208 72.4886 129.271 72.2585 129.39C72.0283 129.51 71.8302 129.683 71.6809 129.895C71.5315 130.107 71.4353 130.352 71.4002 130.609C71.3651 130.866 71.3922 131.128 71.4793 131.373L79.7246 154.504C79.8379 154.819 80.0453 155.091 80.3185 155.283C80.5918 155.476 80.9176 155.58 81.2519 155.581H154.102C154.419 155.581 154.729 155.488 154.993 155.313C155.257 155.139 155.465 154.89 155.589 154.599L165.557 131.339L166.047 131.549L165.557 131.339C165.663 131.093 165.706 130.824 165.682 130.557C165.658 130.29 165.568 130.033 165.421 129.809C165.273 129.585 165.072 129.401 164.836 129.274C164.6 129.147 164.336 129.081 164.068 129.081V129.081Z" fill="#3F3D56"/>
<path d="M118.441 161.954C121.591 161.954 124.145 159.4 124.145 156.25C124.145 153.099 121.591 150.545 118.441 150.545C115.29 150.545 112.736 153.099 112.736 156.25C112.736 159.4 115.29 161.954 118.441 161.954Z" fill="white"/>
<path d="M333.93 112.432C337.081 112.432 339.635 109.878 339.635 106.728C339.635 103.577 337.081 101.023 333.93 101.023C330.78 101.023 328.226 103.577 328.226 106.728C328.226 109.878 330.78 112.432 333.93 112.432Z" fill="white"/>
<path d="M549.684 189.47L534.446 174.426C533.704 173.688 532.824 173.103 531.856 172.706C530.888 172.309 529.851 172.106 528.805 172.11H528.751C527.697 172.113 526.653 172.326 525.682 172.734C524.71 173.143 523.829 173.741 523.089 174.493C519.682 177.941 517.744 182.576 517.683 187.423C517.622 192.27 519.442 196.952 522.761 200.485C522.922 200.659 523.089 200.827 523.257 200.994C524.183 201.915 525.207 202.734 526.308 203.437C529.321 205.383 532.834 206.413 536.42 206.401H536.534C538.996 206.393 541.431 205.896 543.7 204.941C545.969 203.985 548.026 202.589 549.751 200.833C551.247 199.316 552.079 197.268 552.067 195.138C552.054 193.008 551.197 190.969 549.684 189.47V189.47ZM548.801 199.89C545.972 202.74 542.247 204.528 538.253 204.952C534.26 205.376 530.242 204.411 526.877 202.219C525.915 201.582 525.016 200.853 524.194 200.044C520.91 196.801 519.049 192.387 519.021 187.772C518.992 183.157 520.797 178.72 524.04 175.436C524.656 174.808 525.391 174.309 526.202 173.968C527.014 173.627 527.884 173.45 528.764 173.449H528.805C529.676 173.446 530.539 173.614 531.345 173.945C532.151 174.276 532.884 174.762 533.502 175.376L548.741 190.427C550.002 191.675 550.717 193.372 550.728 195.146C550.74 196.92 550.046 198.626 548.801 199.89V199.89Z" fill="#3F3D56"/>
<path d="M499.687 140.095L484.449 125.044C482.949 123.556 480.92 122.723 478.807 122.728H478.76C477.704 122.733 476.66 122.946 475.687 123.356C474.714 123.766 473.832 124.365 473.092 125.118C470.275 127.978 468.449 131.666 467.88 135.64C467.312 139.614 468.031 143.666 469.933 147.202L469.94 147.209C470.725 148.655 471.699 149.989 472.838 151.177C472.965 151.324 473.112 151.472 473.259 151.619C476.759 155.092 481.492 157.037 486.423 157.026H486.543C489.005 157.016 491.441 156.518 493.71 155.561C495.978 154.604 498.035 153.207 499.76 151.451C500.501 150.701 501.087 149.812 501.484 148.835C501.882 147.858 502.083 146.812 502.076 145.758C502.069 144.703 501.855 143.66 501.445 142.689C501.035 141.717 500.437 140.836 499.687 140.095V140.095ZM498.803 150.515C497.202 152.144 495.293 153.44 493.187 154.328C491.082 155.216 488.822 155.678 486.537 155.688H486.423C482.991 155.686 479.637 154.67 476.781 152.768C473.925 150.865 471.696 148.16 470.374 144.994C469.051 141.827 468.694 138.34 469.348 134.972C470.002 131.603 471.638 128.503 474.049 126.061C475.297 124.8 476.994 124.085 478.768 124.074C480.542 124.062 482.248 124.756 483.512 126.001L498.75 141.045C500.011 142.295 500.724 143.994 500.734 145.769C500.744 147.544 500.05 149.251 498.803 150.515L498.803 150.515Z" fill="#3F3D56"/>
<path d="M550.658 194.2L533.859 177.607C532.757 176.522 531.27 175.917 529.723 175.927C528.177 175.937 526.697 176.559 525.609 177.659C524.248 179.034 523.171 180.663 522.44 182.455C521.709 184.246 521.339 186.164 521.35 188.099C521.361 190.034 521.753 191.948 522.504 193.731C523.255 195.514 524.35 197.131 525.727 198.491C527.103 199.851 528.734 200.926 530.527 201.654C532.319 202.383 534.237 202.752 536.172 202.739C538.107 202.725 540.02 202.331 541.802 201.578C543.585 200.825 545.201 199.728 546.559 198.35L550.658 194.2Z" fill="#8CD6FF"/>
<path d="M500.664 144.822L483.864 128.229C482.763 127.144 481.275 126.54 479.729 126.549C478.182 126.559 476.702 127.181 475.614 128.281C474.253 129.656 473.177 131.286 472.446 133.077C471.715 134.869 471.344 136.787 471.355 138.721C471.366 140.656 471.758 142.57 472.509 144.353C473.26 146.136 474.356 147.754 475.732 149.113C477.109 150.473 478.74 151.548 480.532 152.277C482.324 153.005 484.243 153.374 486.178 153.361C488.112 153.348 490.026 152.953 491.808 152.2C493.59 151.447 495.206 150.35 496.565 148.972L500.664 144.822Z" fill="#8CD6FF"/>
<path d="M532.198 204.534L531.796 205.591C529.909 204.875 528.08 204.157 526.308 203.437C494.935 190.634 479.958 175.65 469.94 147.209L469.933 147.202C469.458 145.863 468.996 144.494 468.548 143.093L469.605 142.752C469.959 144.099 470.476 145.398 471.144 146.62C471.693 148.179 472.258 149.698 472.838 151.177C482.254 175.182 496.14 188.901 522.762 200.485C524.1 201.068 525.472 201.645 526.877 202.219C528.509 203.282 530.307 204.064 532.198 204.534V204.534Z" fill="#3F3D56"/>
<path d="M484.169 155.808L483.229 156.76L517.987 191.09L518.927 190.137L484.169 155.808Z" fill="#3F3D56"/>
<path d="M189.901 127.363L189.919 105.37L176.992 106.525L181.554 120.396L164.993 145.501C163.957 145.734 163.011 146.262 162.271 147.023C161.531 147.783 161.028 148.743 160.823 149.784C160.619 150.826 160.722 151.904 161.12 152.888C161.518 153.872 162.193 154.719 163.064 155.326C163.935 155.933 164.964 156.273 166.025 156.305C167.086 156.337 168.133 156.06 169.039 155.507C169.945 154.954 170.671 154.15 171.127 153.192C171.584 152.233 171.752 151.163 171.611 150.111L189.901 127.363Z" fill="#FFB6B6"/>
</g>
<defs>
<clipPath id="clip0_21_729">
<rect width="598.451" height="300" fill="white"/>
</clipPath>
</defs>
</svg>
